<svg xmlns="http://www.w3.org/2000/svg" viewBox="0 0 125.46 18">
    <defs>
        <style>
            .cls-1 {
                fill: #fff
            }
        </style>
    </defs>
    <g>
        <path class="logo__ak1 cls-1" data-name="ak"
            d="M0 17.9 8 .25h.9l8 17.65H14l-2.35-5.77-6.11-.07-2.68 5.84Zm6.34-7.79h4.23L8.45 5.22ZM16.1.45h2.64V9.5l6.83-9h3.15L21 10.49l8.67 7.41h-3.45l-7.33-6.18-.15 6.18H16.1Z" />
        <path class="logo__ak2 cls-1"  data-name="ak"
            d="m73.21 17.9 8-17.65h.9l8 17.65h-2.88l-2.35-5.77-6.11-.07-2.7 5.84Zm6.34-7.79h4.23l-2.12-4.89ZM89.32.45H92V9.5l6.83-9h3.15l-7.73 10 8.66 7.41h-3.48l-7.33-6.19-.1 6.18h-2.68Z" />
        <path class="logo__rest cls-1" data-name="rest"
            d="M31.37.45H34V17.9h-2.63ZM48 15.51v2.19H37.15V.25h10.52v2.21h-7.91v5.25h6.54v2.18h-6.54v5.62ZM71.81.25v17.5l-.59.18-11-12.09V17.7h-2.6V.2l.59-.2 11 12.16V.25ZM104.27 18l8-17.65h.89l8 17.65h-2.86l-1.64-3.56h-7.88L107.13 18Zm5.44-5.72h6l-3-7Zm13.14-12h2.61V17.7h-2.61Z" />
    </g>
</svg>