<svg id="Layer_1" data-name="Layer 1" xmlns="http://www.w3.org/2000/svg" viewBox="0 0 799.39 568.65"><defs><style>.cls-1,.cls-2,.cls-3,.cls-4,.cls-5{fill:none;stroke:#000;}.cls-1,.cls-2{stroke-linecap:round;stroke-linejoin:round;}.cls-1{stroke-width:2.2px;}.cls-2{stroke-width:2px;}.cls-3,.cls-4,.cls-5{stroke-miterlimit:10;}.cls-3{stroke-width:0.75px;}.cls-4{stroke-width:0.25px;}.cls-5{stroke-width:0.5px;}.cls-6{fill:#fff;}</style></defs><g id="outline"><path d="M755.38,523.26c-.36.47-.66.77-.62.81a13.59,13.59,0,0,0,1.4,1.53c.06.06.41-.19.63-.29Zm-448.92-103c.33.06.9.36.88.48a2.8,2.8,0,0,1-.06.28,1.57,1.57,0,0,1-.49.84,24.5,24.5,0,0,1-3,2q-10.06,5.7-20.16,11.36a32.58,32.58,0,0,0-3.29,2c-1.15.84-1.12,1.49-.07,2.42a5.62,5.62,0,0,0,.91.62c6.59,3.85,13.34,7.37,20.72,9.53,5,1.47,10,3,15.09,4.33a113.82,113.82,0,0,0,12.12,2.52A133.43,133.43,0,0,0,343.67,458c3.36.12,6.74-.5,10.11-.8,1-.09,2-.24,3-.28,7-.28,13.76-2,20.45-3.89a11.85,11.85,0,0,1,1.88-.4c6.92-.92,13.84-1.87,20.76-2.73,8.49-1.06,17-1.22,25.55-1.62,11.19-.52,22.2.78,33.26,1.82,6.95.65,13.88,1.39,20.83,2.06,1.18.11,2.39.11,3.57.11A73,73,0,0,1,499.25,454c6.44,1.45,12.18-.13,17.43-3.89,1.94-1.39,3.8-2.89,5.69-4.34a34.76,34.76,0,0,1,9.28-4.78,36.59,36.59,0,0,0,10.87-6.35c2.66-2.24,5.7-4,8.52-6.06a13.71,13.71,0,0,0,1.8-1.85c-.64-.6-1.18-1.44-1.94-1.77-3.11-1.35-6.31-2.54-9.47-3.76a27,27,0,0,1-3.83-1.65c1.38-.52,2.77-.23,4.14-.2,3.39.1,6.78.19,10.16.35a24,24,0,0,1,4.66.42c3.86.9,7.66.45,11.5,0a54.66,54.66,0,0,1,8.77-.33c3.85.18,7.68.7,11.53,1a8.82,8.82,0,0,0,3-.22c3.43-1,6.3.25,9.08,2,1.64,1,3.15,2.26,4.83,3.19,1.25.71,2.7,1.06,4,1.65,1.66.75,3.31,1.54,4.89,2.43,2.44,1.41,4.71,2.14,7.44.38,1.52-1,3.5-.75,5.3.06a5.28,5.28,0,0,0,3.12.68c5.39-1.41,9.79.88,13.91,3.71,3.84,2.63,7.31,5.79,11,8.58,2,1.52,4.18,3,6.91,3.19,2.92.24,5.81.81,8.74,1A20.71,20.71,0,0,1,682.76,452a5.45,5.45,0,0,1,1,1.54,20.8,20.8,0,0,0,1.14,2.08c2.3,3.19,5.76,4.85,9,6.79,3.62,2.16,7.16,4.45,10.73,6.69q3,1.89,6,3.81c.9.57,2,.93,2.14,2.3,0,.31.79.76,1.23.78,2,.07,3.05.89,3.91,2.9.72,1.67,2.66,2.82,4.1,4.26-.5.24-1.62.48-.72,1.65.17.21.34.52.57.58,4,1,4.38,5,6.32,7.68,2.67,3.69,4.85,7.72,8.11,11,1.93,1.92,3.75,3.95,5.57,6,.84.95,1.46,2.06,3.07,1.85.6-.08.87.44.37,1.13a1.44,1.44,0,0,0,.18,1.35c1.25,1.33,2.7,2.48,3.89,3.86,2.34,2.7,5.87,3.77,8.32,6.33,1.33,1.39,2.41,2.73,2.4,4.75a2.75,2.75,0,0,0,.3,1.32,1.53,1.53,0,0,0,.89.55c.07,0,.32-.34.44-.56.21-.39.36-.8.54-1.19a6.52,6.52,0,0,1,1.36.81c1.88,1.89,3.69,3.83,5.55,5.72s4.25,3.84,5.94,6.08,3.94,3.7,5.64,5.79c1.2,1.49,2,3.33,3.28,4.69s3,2,4.29,3.24c2.32,2.15,4.5,4.46,6.68,6.75a10.57,10.57,0,0,1,1.73,2.47,11.78,11.78,0,0,0,2.37,3.42H.25a34.21,34.21,0,0,1,11.91-5.34,6.51,6.51,0,0,0,3.93-2.29c5.7-6.83,11.38-13.69,17.2-20.42,1.47-1.7,3.47-2.94,5.2-4.43,2.49-2.15,5-4.28,7.43-6.51,2.16-2,4.2-4.11,6.3-6.17a18.63,18.63,0,0,1,2-1.86c4.48-3.35,8.93-6.76,13.51-10C73.3,507.52,79,503.8,84.61,500c.83-.57,1.74-1,2.62-1.51a27.12,27.12,0,0,0,6.89-5,23.89,23.89,0,0,1,7.18-5.33,22.36,22.36,0,0,1,8-2.58,3,3,0,0,0,1.88-1.3,50,50,0,0,0,2.8-4.74c1.8-3.3,3.36-6.75,5.35-9.94a28.35,28.35,0,0,1,10.13-9.45,7.65,7.65,0,0,1,2.41-.45l10.31-1.62a3.45,3.45,0,0,0,.8-.17c6.8-3.34,14.49-3,21.54-5.34,4.89-1.61,9.78-3.19,14.62-4.91,4-1.42,8.15-1.31,12.28-1.1a7.25,7.25,0,0,1,3,1.22,8.16,8.16,0,0,0,4.92,1.43,5.19,5.19,0,0,1,2.66.56,8.53,8.53,0,0,0,8.13,0,6.9,6.9,0,0,1,4.53-.37c2.9.59,5.68.53,7.76-2.54a8.24,8.24,0,0,1,4.76-3c3.5-.77,6.5-2.46,9.54-4.14a60.72,60.72,0,0,1,13.34-5.1c3-.82,6-1.65,9.06-2.22,2.27-.42,4.41-1.71,6.49-2.83a37.21,37.21,0,0,0,4.79-3.23,24.21,24.21,0,0,0,3.54-3c3.46-3.77,7.59-5.78,12.76-4.79a91.37,91.37,0,0,0,17.55,1.42A11.51,11.51,0,0,1,306.46,420.27ZM762.51,533.09c.08,0,.17.12.23.1s.26-.18.38-.26c-.13-.08-.27-.14-.41-.22C762.64,532.83,762.58,533,762.51,533.09Z"/><path d="M534.56,104.76c.12.46.22.91.34,1.36l-.35,0C534.55,105.7,534.55,105.23,534.56,104.76Z"/><path d="M534.56,104.63v.13l0-.12Z"/><path d="M534.54,104.64s0,0,0,0l.06,0h0Z"/><path d="M534.5,104.6a4.77,4.77,0,0,1-.94-.34c-.14-.08-.15-.4-.22-.62a2.1,2.1,0,0,1,.48.2C534.06,104.07,534.27,104.35,534.5,104.6Z"/><path d="M532.22,112.55l1.14,1.54-.39.25-1-1.62Z"/><path d="M534.5,129.91a2.39,2.39,0,0,1-1.84-1.31,15.12,15.12,0,0,1-.74-4.31C532.74,126.08,533.56,127.88,534.5,129.91Z"/><path d="M525.73,121.9c0,.06-.1.18-.11.18a2.21,2.21,0,0,1-.34-.18.68.68,0,0,1,.09-.17A2.37,2.37,0,0,1,525.73,121.9Z"/><path d="M522.59,114.39c1.85,1.46,2.11,2.25,1.69,5.18C523.66,117.67,523.18,116.17,522.59,114.39Z"/><path d="M523.32,273.22a25.88,25.88,0,0,0,.6-5,28.65,28.65,0,0,1,2.18-7.93A73.78,73.78,0,0,1,523.32,273.22Z"/><path d="M522.51,275.4a7.71,7.71,0,0,0,.32-.73c-.11.36-.25.73-.37,1.08A.58.58,0,0,1,522.51,275.4Z"/><path d="M519.84,109.72c-.91,0-2-1.56-1.56-2.23a.92.92,0,0,1,.67-.24,16.17,16.17,0,0,1,1.29,2C520.29,109.29,520,109.58,519.84,109.72Z"/><path d="M516.43,76.55s-.08.14-.12.22l-.4-.24.14-.23A4.13,4.13,0,0,1,516.43,76.55Z"/><path d="M507.16,109.35a6.71,6.71,0,0,1,1.66,3.91,5.23,5.23,0,0,1-2.76-3.44c-.06-.21.12-.7.2-.7C506.56,109.12,507,109.15,507.16,109.35Z"/><path d="M503.92,109c-1.13-1.87-2.27-3.74-3.34-5.65-.13-.23.09-.65.15-1,.32.11.81.11.92.31,1.05,2,2.68,3.71,2.84,6.08Z"/><path d="M477.91,188.76a4,4,0,0,1-.45,2.25,1,1,0,0,1-1.74-.23,5.55,5.55,0,0,1-.17-2.59,1.06,1.06,0,0,1,.44-.58,1,1,0,0,1,.74-.09,1,1,0,0,1,.49.34,1.08,1.08,0,0,1,.42.23A1,1,0,0,1,477.91,188.76Z"/><path d="M458,305.8a12,12,0,0,1,3.35-1.17c.66-.1,1.42.5,2.14.78-.33.7-.48,1.69-1,2a14.81,14.81,0,0,1-3.23,1.1,7.08,7.08,0,0,0-2.19-.08l-.33-2.06Z"/><path d="M451.84,128.26s0,.08,0,.11l0,0C451.85,128.36,451.85,128.32,451.84,128.26Z"/><path d="M451.62,126.65c.07.53.15,1.07.22,1.61l-.56-1.55Z"/><polygon points="429.5 78.72 429.41 78.88 429.32 78.73 429.5 78.72"/><path d="M429.08,274.79c1.15.53,1.1,1.4,0,2.06a3.8,3.8,0,0,1-1.74.74,18.92,18.92,0,0,0-5.9,1c-.67.23-1.94-.72-2.66-1.41-.23-.22.3-1.48.73-2.09a5.54,5.54,0,0,1,4.15-2.14A52.71,52.71,0,0,1,429.08,274.79Z"/><path d="M407.55,337.59a1.61,1.61,0,0,1-.15.68c-.45,1.14-1.83,1.53-3.34.68a8.63,8.63,0,0,0-7.1-.88c-2.26.64-4.56-.07-6.69-1a14.24,14.24,0,0,0-2.51-1.11,10.84,10.84,0,0,1-6.37-3.95c-1-1.26-3.15-1.65-4.79-2.43-.57-.26-1.35-.34-1.71-.78-2-2.51-4.93-3.46-7.76-4.49a10.3,10.3,0,0,1-4.94-3.79c-1.72-2.39-.8-4.5,2.14-4.91a2.72,2.72,0,0,1,1.1,0c5,1.44,9.82-.33,14.67-1a33.15,33.15,0,0,0,8.07-2.64c2.24-.9,4.37-1.38,6.65-.39,2,.87,4,.21,6-.11a3.27,3.27,0,0,1,3,.73,4.21,4.21,0,0,0,4.58,1A4.2,4.2,0,0,1,410,313c4.3.11,8.6.28,12.9.39a4,4,0,0,0,1.83-.33,3.78,3.78,0,0,1,3.42-.2,2.07,2.07,0,0,0,1.63-.3c.76-.49,1.35-1.23,2.09-1.78.31-.23,1.07-.42,1.17-.28,1.32,1.66,2.85.65,3.95.05a10.81,10.81,0,0,1,6.88-1.38c.35,0,.86.09,1.06-.1,1.66-1.59,3.74-1.33,5.71-1.28a14,14,0,0,0,6.08-1.39l.33,2.06a22,22,0,0,0-5.48,1.92,79.86,79.86,0,0,1-13.6,4.28c-7.17,1.51-14.19,3.71-21.29,5.61-1.86.49-3.71,1.06-5.59,1.44-5.4,1.09-10.81,2.11-16.22,3.12a11.3,11.3,0,0,1-2.18.12c-.46,0-.92-.14-1.37-.13-1.33,0-2.61.26-3.28,1.57-.43.85.44,2.05,2.06,2.9a5,5,0,0,0,2.31.8c2.73-.19,5,1,7.28,2.13a65.35,65.35,0,0,1,6.22,3.48C406.63,336.14,407.55,336.65,407.55,337.59Z"/><path d="M403.65,281.3a2.29,2.29,0,0,1,.4.8c0,1.17-1.17,2-1.92,1.28-2.69-2.4-5.78-1.77-8.88-1.6a7,7,0,0,1-2.63-.56c-1.21-.42-2.35-1-3.53-1.48-1.41-.59-1.62-1.42-.61-2.44,2.5-2.52,8-3.44,11-1.43A55,55,0,0,1,403.65,281.3Z"/><path d="M381.64,13.55c-.2.13-.41.37-.6.35s-.3-.32-.45-.5l.63-.49Z"/><path d="M416.51,390.68c-.86,2.5-2.52,3.36-5.85,2.93-1.81.1-3.61.29-5.42.29a5.28,5.28,0,0,1-2.32-.66,6.18,6.18,0,0,0-3.7-.52c-2.65.26-5.31,0-7.49-1.74a6.13,6.13,0,0,0-4-1.58,6.5,6.5,0,0,1-4.45-1.81,38.68,38.68,0,0,0-4.2-2.58c-1.68-1.1-3.33-2.27-4.94-3.46-.31-.23-7.42-6-7.61-6.38.49,0,8.07,5,8.47,5.18a38.05,38.05,0,0,0,4.5,2c2,.52,4.15.58,6.22.93a17.92,17.92,0,0,1,4.2,1,9.58,9.58,0,0,0,7.44.59,6.06,6.06,0,0,1,5.69,1.18,6.19,6.19,0,0,0,3.52,1.05,68.38,68.38,0,0,0,8.94.61c1.07-.06,1.57.69,1.28,1.89A9,9,0,0,1,416.51,390.68Z"/><path d="M369,380.49c-.09.11-.16.32-.26.33s-.25-.13-.37-.21c.08-.12.15-.32.25-.34S368.89,380.4,369,380.49Z"/><path d="M364.64,378a3,3,0,0,1,.6.68c-.21.11-.44.35-.61.29s-.47-.34-.88-.66C364.22,378.17,364.51,378,364.64,378Z"/><path d="M363.07,103.8c-.2.35-.34.57-.47.79-.18-.12-.52-.23-.52-.36a1,1,0,0,1,.31-.67C362.46,103.49,362.78,103.69,363.07,103.8Z"/><path d="M362.26,108.49c.91,2.49-.08,4.33-.52,6.22,0,.16-.41.27-.65.31s-.34-.22-.34-.34A9.23,9.23,0,0,1,362.26,108.49Z"/><path d="M354.2,97.48l.51.07c-.25,1.67-.46,3.34-.78,5-.06.35-.54.61-.83.92-.1-.46-.37-1-.26-1.36C353.23,100.55,353.74,99,354.2,97.48Z"/><path d="M351.17,197.59c-.36-.93,0-4.11,0-5.09a1,1,0,0,1,1-.95.93.93,0,0,1,.92.77,1.81,1.81,0,0,1,.78.93,1.84,1.84,0,0,1-.36,1.7c0,.06,0,.11,0,.18,0,.48-.74,3.08-1.21,3.13a.93.93,0,0,1-.61-.11A1,1,0,0,1,351.17,197.59Z"/><path d="M352.08,92.26a13.89,13.89,0,0,1,.43-1.43c.31.45.56.66.54.83a3.38,3.38,0,0,1-.38.93C352.46,92.48,352.08,92.34,352.08,92.26Z"/><path d="M541.83,217.58c-1.06.11-2.2,0-3.17,1C541.25,219.19,541.29,219.2,541.83,217.58Zm.13-.1a4,4,0,0,0,.63-.26,1.54,1.54,0,0,0,.27-.41c-.2,0-.48,0-.59.07A1.79,1.79,0,0,0,542,217.48Zm1.93-5.44c-.11.06-.13.57,0,.71.81.9,1.72,1.75,3.05,1.45a2.79,2.79,0,0,0,1.57-.9c.49-.65-.11-1-.6-1.53-1.3-1.32-.76-2.69,1-3.08a16.72,16.72,0,0,0,2.86-.83c.9-.38,1.63-1,1-2.09-.06-3.19-1.36-3.59-3.71-4-1.25-.18-1.36.29-1.49,1.29a4.75,4.75,0,0,1-.91,2.1,28.8,28.8,0,0,1-2.66,3.08c-.8.82-.91,1.58,0,2.34C544.63,211.19,544.74,211.59,543.89,212ZM388.58,17.55a2.55,2.55,0,0,0-.3.26,2.45,2.45,0,0,0,.39.08s.05-.13.08-.2A1.17,1.17,0,0,0,388.58,17.55ZM357,105.94c-1.92-.71-1.37-2.11-1.09-3.45a45.54,45.54,0,0,1,1.28-5.63,12.27,12.27,0,0,0,.17-6.41l-1.51,2.45c-.71-2.45.8-4.55-.48-7-.26,1.16-.36,1.84-.58,2.48-.09.28-.42.49-.63.74-.19-.28-.53-.55-.55-.84-.06-1.23,0-2.46,0-3.71l-.7,0c-2.44,4.08-3.3,8.66-4.13,13.26a2.22,2.22,0,0,0,0,1.09c.54,1.37,0,2.47-.66,3.62a13.81,13.81,0,0,0-1.29,4.64c-.7,4.38.55,9.06-1.91,13.18a.77.77,0,0,0-.09.53c.58,1.77-.11,3.44-.32,5.16a2,2,0,0,0,.55,1.62c2.39,1.63,2.41,1.59,1.72,4.22-.75,2.84-1.49,5.69-2.18,8.54a8.73,8.73,0,0,0,.14,2c.76-1.09,1.41-1.62,1.52-2.26a30.61,30.61,0,0,1,2.19-6.17c1.09-2.81,1.71-5.81,2.55-8.71.78-2.73,1.46-5.47,3.67-7.58a6.18,6.18,0,0,0,1.42-2.94c.55-2.41.94-4.87,1.31-7.31C357.53,106.93,357.33,106.05,357,105.94Zm-23.7-16.62a29,29,0,0,0,1.89-3.78c1-2.81,1.74-5.69,2.57-8.54,0-.07-.21-.21-.53-.51a56.08,56.08,0,0,0-3.88,8.09A5.31,5.31,0,0,0,333.34,89.32Zm-2,3.67a7.59,7.59,0,0,0-1.17.93,3.61,3.61,0,0,0-.39,1q-.93,2.27-1.89,4.53a8,8,0,0,0-.66,1.5,5.31,5.31,0,0,0,.14,1.46c.38-.2.91-.31,1.11-.62,1.46-2.32,3-4.63,3.4-7.77Zm1.53-3.41c-.56.07-1.21.09-.86.93.12.29.47.5.71.74a7.6,7.6,0,0,0,.6-1.08,1.92,1.92,0,0,0,0-.72A4.12,4.12,0,0,1,332.86,89.58Zm-32.24,6.91c-.47.89-.48,1.58.84,1.6a3.91,3.91,0,0,1,1.09.37c-.28.33-.59,1-.82,1h0c-2.2-.26-2.41.76-1.73,2.47a1.26,1.26,0,0,1,0,.54l-.33.16c.32.64.48,1.61,1,1.84.93.43,1.73-.22,2.21-1.1a10,10,0,0,0,.61-1.23c.19-.53.35-1.1.55-1.63a4.36,4.36,0,0,1,1.7-2.3c.23-.15.31-.63.31-1a3.71,3.71,0,0,0-3-3c-.54,0-1.13.93-1.66,1.47A3.31,3.31,0,0,0,300.62,96.49Zm219.28,40a2.16,2.16,0,0,0-.23.66,2.52,2.52,0,0,0,.53.19,4.34,4.34,0,0,0,.12-.69C520.31,136.61,519.91,136.49,519.9,136.51ZM506,85.63c.81,1.05,1.72.46,2.37-.57-2.21-.79-2.17-.79-2.13-3a10.2,10.2,0,0,0-.33-2c-.63,1.56-.63,1.56-2.8.71A41.79,41.79,0,0,0,506,85.63Zm-2.42,41.24c-.13.12-.49.35-.46.43.37,1.08.8,2.15,1.26,3.2a1,1,0,0,0,.7-.14C505.59,129.71,504.5,127,503.53,126.87Zm-.28-2.91a1.78,1.78,0,0,0,.31-.23l-.33-.3a1.57,1.57,0,0,0-.14.38S503.23,124,503.25,124Zm2.18-.75c.18.58.35,1.15.52,1.73l.42-.14c-.18-.57-.37-1.14-.56-1.72Zm-4.53,4a19.09,19.09,0,0,0-.32-3.14,11.42,11.42,0,0,0-1.28-2.63.71.71,0,0,0-.69-.15.67.67,0,0,0-.25.66c.69,1.81,1.44,3.6,2.18,5.39Zm.53-66.12.19-.09a2.94,2.94,0,0,0-.26-.39s-.13,0-.19.09S501.34,61,501.43,61.08Zm0,59.12c.07.23.56.31.86.46.14-.3.45-.65.39-.89a23.39,23.39,0,0,0-.94-2.4l-.88.29C501,118.51,501.14,119.38,501.4,120.2Zm-9.83,55.63c-.21-1-.4-1.94-.69-2.87-.56-1.73-1.61-3.41-1.69-5.16A9.74,9.74,0,0,0,487.6,163a7.21,7.21,0,0,1-1.21-4.42,6.6,6.6,0,0,0-2.12-5,42.89,42.89,0,0,0,1.31,8,71.8,71.8,0,0,0,2.94,8.26C489.39,171.86,490.52,173.82,491.57,175.83Zm2.28-84A4.86,4.86,0,0,0,491,88C491.38,90.09,492.71,90.87,493.85,91.8Zm-2,84.45c.38.4.77.78,1.15,1.17.12-.17.26-.35.38-.53Zm7.19-39.19a88.49,88.49,0,0,0-3.42-17,11.9,11.9,0,0,0-1.07-2.18,29.62,29.62,0,0,1-2-3.54c-1.85-4.77-3.17-9.75-5.73-14.24a7,7,0,0,0-.69-.93l-.54.26c.33.89.74,1.77,1,2.69,1.11,4.19,3.32,8.1,3.35,12.58,0,1,.73,2.45-1.38,1.88,0,0-.4.74-.3,1q1.85,5.75,3.8,11.47c.28.78.36.74,1.6.4a.76.76,0,0,1,.65.19,20,20,0,0,1,1,2q1.83,4.13,3.64,8.25l.58-.22C499.35,138.83,499.13,138,499.05,137.06Zm-18.26-10.65c-.08-.14-.12-.35-.24-.4s-.27.14-.4.21c.08.14.15.28.24.43Zm2-1.87c.49,1.57,1.2,3.06.78,4.81a1.61,1.61,0,0,0,.64,1.35c1.47,1,2.92,1.87,3.57,3.64a1,1,0,0,0,.93.29,1,1,0,0,0,.48-.83,17.7,17.7,0,0,0-.39-2.71c-.36-1.61-.79-3.19-1.19-4.78-1.21-4.8-3.38-9.24-5.25-13.78l-.8.18c.3,1.2.59,2.41.9,3.62.44,1.68.93,3.35,1.32,5a1.9,1.9,0,0,1-.27,1.17C481.31,122.5,482.59,123.84,482.81,124.54ZM473.17,122c.21.87.36,1.76.5,2.64.26,1.6.38,3.25.79,4.82.32,1.28.68,2.48-.07,3.74-.54-3.46-3.12-6.31-2.8-10a2.79,2.79,0,0,0-.41-1.29c-.71-1.58-1.43-3.16-2.19-4.71-.34-.72-.36-1.14.57-1.4s1.08-.82.61-1.87c-.88-1.9-1.42-4-2.11-5.94-.43-1.25-.25-3.11-2.55-2.49-.19,0-.64-.4-.79-.69a19.3,19.3,0,0,1-1.32-3c-.58-1.93-1-3.9-1.55-5.84a1.92,1.92,0,0,0-2-1.66c2.39,8.44,4.95,16.53,7.13,24.78a7.29,7.29,0,0,1-2.24-3.09c-.43-1.89-1.71-3-3.08-4.93.17,1,.19,1.39.28,1.73,1.47,5.42,2.93,10.82,4.43,16.22a9.76,9.76,0,0,0,.91,2.3c.23.4.78.61,1.19.9a4.05,4.05,0,0,0,.49-1.17c.08-1.06,0-2.12,0-3.18l.61-.08c.46,1.74.86,3.49,1.4,5.2a24.06,24.06,0,0,0,1.53,3.81c.3.59,1.1.93,1.47,0,.67-1.67,1.26-.74,1.93-.07s1.22.49,1.31-.39c.39-3.54,1.25-7.16-.63-10.51a18.3,18.3,0,0,1-2.05-5.64c-.14-.79-.31-1.86-1.38-1.61-.33.08-.47,1.36-.52,2.11C472.64,121.16,473.06,121.57,473.17,122ZM444.52,99.45c-.06,0-.18,0-.26,0s-.17.17-.15.22c1.91,4.84,3.82,9.69,5.78,14.53a1,1,0,0,0,.82.45,1,1,0,0,0,.52-.84c-.31-1.22-.75-2.41-1.13-3.63-.24-.77-.18-1.38.86-1.07s1.44-.24,1.49-1.06a11.17,11.17,0,0,0-.14-3.47c-.86-3.09-1.82-6.16-2.93-9.16-1-2.67-2.19-5.25-3.34-7.85-.28-.63-1-1.25-1.44-.52a14.75,14.75,0,0,0-1,3.55c2,1.83,2.19,4.26,2.27,6.75,0,.36.2.7.26,1.07.14.82,1.45,1.54.38,2.35C446.34,101,445.22,99.92,444.52,99.45ZM319.23,54a.85.85,0,0,0-.73.12,3.24,3.24,0,0,0-.95,1.25,3.61,3.61,0,0,0,.17,1.42c.38-.17.87-.24,1.12-.53a9.47,9.47,0,0,0,.9-1.59C319.52,54.32,319.42,54,319.23,54Zm-.16,56.81c-.37-.22-.61-.46-.73-.41a.82.82,0,0,0-.46.54c0,.16.23.37.36.56Zm.69-2.83c.31-.28.73-.51.88-.85q1.5-3.26,2.91-6.54a23.77,23.77,0,0,0,1.27-3.35,1.37,1.37,0,0,0-1.42-1.85c-1.4,0-3.82,2.73-3.29,4a5.9,5.9,0,0,1-.26,5,13.06,13.06,0,0,0-.57,2.65Zm1.06-56,.42-.12a1.83,1.83,0,0,0-.21-.39s-.2,0-.21.08A3.08,3.08,0,0,0,320.82,52Zm-10.56-.12a2.64,2.64,0,0,0,2.68-1.38c.54-1,1.22-1.1,2.29-.64a2.19,2.19,0,0,0,2-.33,38.86,38.86,0,0,0,3.6-4.09c.83-1.07,1.5-2.27,3.39-2.85-.19,1.25-.26,2.21-.46,3.14-.12.53-.54,1-.61,1.53a7.16,7.16,0,0,0,.15,1.71,4.76,4.76,0,0,0,1.16-1,32.93,32.93,0,0,0,2.4-4c1.45-3.12,3.9-5.48,6.06-8.06C334,34.62,334.81,33.17,336,32c1.36-1.32,3-2.38,4.45-3.58s4-1.84,4.4-4.55c.09-.58,1.74-.93,2.65-1.4,1.28-.68,2.56-1.36,3.8-2.09s2.23-1.74,3.5-2.14c2.67-.86,5-2.55,8-2.78,2.13-.16,4.21-1.24,6.26-2,4-1.51,3.5-1.36,6.26,1.7a14,14,0,0,1,1.45-1.2c.93-.6,1.83-.8,2.67.26.32.4.84.9,1.28.9,2.17,0,4.34-.11,6.51-.23,1.17-.06,2.32-.22,3.49-.22s2,.26,1.72-1.49c-.19-1.13,1-.85,1.62-.68,1.66.49,3.28,1.1,5,1.7.11-.84,0-1.75.36-2.14s1.35-.3,2-.52c1.47-.49,3.38.15,4.34-1.68a.63.63,0,0,1,.47-.25c4.07-.12,7.87-2.18,12-1.58.44.06,1,.26,1.34.06,3.38-2.18,6.8-.14,10.16,0,6.48.31,12.41,3,18.33,5.42,3.3,1.36,6.7,2.48,9.92,4,2.37,1.12,4.5,2.78,6.82,4,2.71,1.47,5.63,2.56,8.23,4.19a73,73,0,0,1,9.35,6.71c3.24,2.82,6.11,6.07,9.14,9.12.25.26.67.49.74.81.93,3.88,4.71,5.39,6.85,8.29,1.23,1.67,2.81,3,3.38,5.21a10.54,10.54,0,0,0,2,3.27c2.36,3.16,4.79,6.27,7.16,9.42a22.28,22.28,0,0,1,1.29,2.4,9.07,9.07,0,0,1-4.19-2.69c-1.35-1.59-2.74-3.18-4.16-4.71a3.57,3.57,0,0,0-3.84-.6,1.18,1.18,0,0,0-.3,1.07c.39.47,1,1.12,1.47,1.09,1.56-.09,2,.93,2.63,2a39.58,39.58,0,0,0,2.85,4c.5.64.87,1.18.21,1.9-1,1-.54,2.14,0,3.06,1.9,2.9,3.94,5.73,5.88,8.62a15,15,0,0,1,1,2.13,10.32,10.32,0,0,0,.87,2c.67.9,1,1.63.23,2.69-.65.88-.12,1.63.84,1.86,1.47.36,1.9,1.12,1.57,2.61-.14.6.33,1.37.62,2,.39.88.87,1.73,1.31,2.6l-.59.34c-.82-1.36-1.61-2.73-2.48-4a7,7,0,0,0-1.11-1.06,7.65,7.65,0,0,0-.17,1.43,11.79,11.79,0,0,0,.45,1.8,3.86,3.86,0,0,1-1.94-3.77c0-3.3-2.42-5.4-4-7.87-.11-.16-.7-.22-.72-.19a2.56,2.56,0,0,0-.32,1.22,46.86,46.86,0,0,0,3.78,12.88,17.41,17.41,0,0,1,.71,2,3.79,3.79,0,0,1-2.58-2.17,12.74,12.74,0,0,0-1.72-2.48c-.33-.32-1.1-.21-1.67-.3,0,.52-.27,1.12-.07,1.52.8,1.64,1.8,3.17,2.6,4.82a42.24,42.24,0,0,1,2.81,7.17,4.25,4.25,0,0,1-1-.93c-1-1.94-1.9-4-3-5.88-1.68-2.84-3.49-5.6-5.31-8.36-.2-.29-.73-.38-1.12-.56a3.36,3.36,0,0,0-.28,1.23,5.71,5.71,0,0,0,.66,2.07c1.32,2.19,2.75,4.32,4.44,7a7.67,7.67,0,0,1-3.56-2.77c-1.37-1.81-2.94-3.47-4.37-5.23A8.67,8.67,0,0,1,497.69,96a6.44,6.44,0,0,0-3.75-4,1.62,1.62,0,0,0,.15.42c1.09,1.9,2.8,3.69,3.14,5.71a22.15,22.15,0,0,0,1.71,6.23,27.7,27.7,0,0,1,2.46,6.35,13.16,13.16,0,0,0,2.7,5.33c1.15,1.45,1.66,3.44,2.31,5.25,1.3,3.63,2.48,7.3,3.75,10.94.14.42.34,1,.68,1.15,2.71,1.44,4.19,4,6.08,6.26.15.18.46.22,1.17.54-.22-1.16-.34-2-.53-2.84a2,2,0,0,1,.82-2.41c2-1.19,1.89-3,1.34-4.82s-1.19-3.43-2-5.67a3.55,3.55,0,0,1,2.2,2.42c1.38,3.28,2.59,6.67,4.12,9.87,2,4.21,4.3,8.29,6.71,12.37-.64-3.2.4-6.53-1.36-9.66s-1-6.63-.74-10c.05-.55.59-1,1.12-1.91l1.12,2.06c1.15,2.14,2.27,4.18,3.51,6.47.59-1.34.8-2.83,2.46-2,.07,0,.7-.63.67-.95,0-1-.33-2-.46-3,0-.15,0-.3-.05-.44-.11-.89-.17-1.79-.26-2.75.55.09.77.05.89.15.6.49,1.55,1.55,1.69,1.46,1.06-.77,0-1.6-.17-2.39-.51-1.9-1.71-3.67-.75-5.83.25-.56-.18-1.42-.28-2.15-.06-.44-.31-1.07-.11-1.3,1.57-1.82.16-3.24-.52-4.77a12.24,12.24,0,0,1-1-2.89c3.92,5.39,6.47,11.44,9.26,17.61.09-1.06.19-2.13.33-3.77.73,1.21,1.24,2,1.7,2.85,1.64,2.94,2.6,6.29,5.28,8.61.37.32.39,1,.67,1.49a9.39,9.39,0,0,0,1.48,2.21,15.14,15.14,0,0,1,3.74,5.37c1.55,3.73,3.37,7.36,4.72,11.15,1.49,4.2,2.58,8.54,3.81,12.82a2.71,2.71,0,0,1,.1,1.63c-.76,1.76-.18,3.43.14,5.13a15.59,15.59,0,0,1,0,7.06c-.52,2.06-.08,4.36-.12,6.55a4.9,4.9,0,0,1-.35,2.15,5.89,5.89,0,0,0-.44,4.78,2.55,2.55,0,0,1-.09,1.61c-.83,2.13-1.67,4.27-2.69,6.31a2.28,2.28,0,0,0-.15,2.54c.74,1.12.3,2-.38,3-1.33,2-2.46,4.07-3.71,6.09-1.06,1.7-2.19,3.36-3.26,5.06-.84,1.3-1.62,2.66-2.47,4-1.91,2.91-3.92,5.76-5.77,8.7-1.21,1.94-2.19,4-3.34,6-1.33,2.28-2.83,4.45-4.06,6.78-1.8,3.37-3.36,6.87-5.14,10.26-1.41,2.66-3,5.22-4.49,7.85a3.9,3.9,0,0,0-.74,1.94c.08,1.53-.37,2.49-1.92,2.84a3.25,3.25,0,0,0-2.36,2.46c-.47,1.49-1,3-1.55,4.41a4.23,4.23,0,0,1-.7,1.48c-.32.33-.92.38-1.39.55,0-.29-.14-.61-.14-.9s.26-.72.37-1.08a13.19,13.19,0,0,0,.48-1.42v0a73.78,73.78,0,0,0,2.78-12.88,41.36,41.36,0,0,0,2.38-9.69c0-.32.07-.66.1-1,.75-8.5,1.55-17,2.14-25.51.42-5.93.38-6.1-4.76-9.12a81.75,81.75,0,0,0-18.2-7.8,12.86,12.86,0,0,0-5.45.07c-4.22.69-8.39,1-12.45-.71a1.92,1.92,0,0,0-1.07-.24c-2.66.6-5-.68-7.53-1.08a50.67,50.67,0,0,0-6.87-.23c-1.68,0-2.86,0-4.4-.07-2.23-.05-3.44-.08-5-.17-1.13-.07-3.06-.27-6.93-.67-2.78-.29-3.39-.36-4.26-.51-1.76-.3-2.07-.47-3.51-.66a39.38,39.38,0,0,0-4.18-.21c-3.17-.07-4.75-.11-4.93-.07-1.23.29-2.4.31-3.24-.83a3,3,0,0,1-.08-3.63c1.57-2.49,3.22-4.91,4.9-7.33,1.2-1.72,2.51-3.37,3.78-5a4.79,4.79,0,0,1,.91-1c2.93-2.18,5.81-4.49,8.88-6.45a27.87,27.87,0,0,1,5.38-2.07c.43-.15.91-.18,1.34-.34,2-.76,2.32-2.08.81-3.53-1.25-1.2-2.69-2.21-4-3.36a6.71,6.71,0,0,1-1.65-2.11c1.41.17,2.3,1.16,3.3,1.93s2,1.64,3.07,2.32a1.84,1.84,0,0,0,1.49-.12c.17-.08.21-.9,0-1.21a2.57,2.57,0,0,1-.13-2.83,2,2,0,0,0-.34-1.73c-.77-1-1.83-1.8-2.6-2.81-.53-.72-.54-1.93-1.17-2.45s-2.23-.1-2.53-.62c-1.14-1.92-3.58-.78-4.8-2.29-.11-.13-1,.09-1.17.36a1.37,1.37,0,0,0-.11,1.23c.37.73,1,1.34,1.4,2,.13.2.15.66,0,.76s-.8.41-.92.3a7.36,7.36,0,0,1-2.08-2.33c-.42-1.2-.25-2.75-1.6-3.31a23.65,23.65,0,0,0-5.73-1.67c-2.71-.34-5.46-.27-8.19-.37a7.49,7.49,0,0,0-.82,0c-2.66.15-2.58.12-2.11-2.56.52-3,2.61-4.49,5.05-5.71.74-.37,1.61-.47,2.32-.86a8.22,8.22,0,0,1,6.52-1c1.52.4,3.48-.17,5.05-.81,2.78-1.13,3.55-3.71,2.47-6.94-.86-2.54-1.75-5.07-2.62-7.61.48.8,1,1.57,1.42,2.39a10.84,10.84,0,0,0,2.1,3.21,8.47,8.47,0,0,0-.32-1.43c-2.41-6.25-4.73-12.54-7.33-18.71a42.22,42.22,0,0,0-4.23-7.34,46.91,46.91,0,0,1-6.35-12.17c-.31-.94-1-1.76-1.39-2.68a15,15,0,0,1-1.37-3.56c-.69-4.48-3-8.24-5.11-12.1q-3.9-7.26-8-14.42c-1.91-3.33-4-6.57-6-9.85a1.34,1.34,0,0,0-.56-.59c-3.39-1.16-5.32-4.31-8.24-6-2.5-1.47-5.24-2.82-8.48-1.34-1.46.66-3.32,1.2-4.79-.62a2.27,2.27,0,0,0-2.19-.16c-1.24,1.45-2.81,1-4.29,1.15-.67.07-1.66.2-1.89.63a3.08,3.08,0,0,1-3.42,1.67c-1.93-.15-3.19,1.22-4.37,2.43-1.45,1.48-2.7,3.14-4,4.71-.06.07-.16.12-.2.19-.5.94-2.15-1.06-2.05.63.07,1.27-.8,1.52-1.3,2.19-1.5,2-2.78,4-2.13,6.79a10.2,10.2,0,0,1-.6,5.9c-1,2.67-1.89,5.51-1.2,8.54a4.16,4.16,0,0,1-.42,2.66c-1.33,2.66-1,5.57-1.42,8.37a2.34,2.34,0,0,0,.51,1.78c1.36,1.23.57,2.56.3,3.84a1.18,1.18,0,0,1-.89.79c-.32,0-.68-.48-.92-.83-.43-.63-.78-1.32-1.16-2-.42.75-.85,1.51-1.26,2.28a1.37,1.37,0,0,0-.12.53c-.3,4.38-.42,8.78-1,13.13-.6,4.91-1.58,9.78-2.36,14.67-.39,2.44-.72,4.89-1.05,7.34,0,.13.18.29.37.57,1.08-.74,1.25-1.92,1.55-3a25.79,25.79,0,0,1,.82-2.89c.13-.32.66-.47,1-.69.18.37.58.8.5,1.11A26.6,26.6,0,0,0,360,133a20.78,20.78,0,0,1-1.22,6.43c-.11.39-1.31.47-2.16.76,1.42,1.72.53,3.78.35,5.88a43.18,43.18,0,0,0,.1,6.82,3.42,3.42,0,0,0,2.61,3.15,8.93,8.93,0,0,1,3,2.28,1.77,1.77,0,0,1-.07,2.71,12.34,12.34,0,0,1-3,2.29,7.38,7.38,0,0,0-3.59,2.8c-1.09,1.76-1.35,1.73-3.38,1.12-1.81-.54-2.2-.46-3.08,1.25a3.41,3.41,0,0,1-2.67,2.07,4,4,0,0,0-2.07,1.22c-2.58,2.73-5.11,5.52-7.59,8.34-.59.66-.81,1.19-.67,1.59s.91.69,1.75.91a9.43,9.43,0,0,0,1.87.29s.54,0,4.63.84c3.91.8,15.91,6.67,20.66,13.85,1.34,2,1,2.52,3,5.48.74,1.13,1.43,2,1.12,2.95s-1.55,1.47-2.23,1.76a6.64,6.64,0,0,1-2,.49,50.09,50.09,0,0,1-6.27,0,18.14,18.14,0,0,0-5.31.44c-1.83.51-2.83,1.2-4.94,1.22a3.53,3.53,0,0,1-2.44-.6c-.31-.27-.42-.49-1.13-2.53-.64-1.83-.86-2.74-1.23-3.66a7.4,7.4,0,0,1-.19-4.85c.5-2,1.22-6.14,1.6-8.12.07-.33.08-1,0-1-1.49-.49-3.09-1.42-4.5-1.21-3.34.48-6.58,1.56-9.87,2.31a7.27,7.27,0,0,0-4.18,2.47,4.46,4.46,0,0,1-1,.93c-3.56,2.28-4.61,5.76-4.6,9.7a3.2,3.2,0,0,0,.75,1.6,6.74,6.74,0,0,0,1.84,1.52c.26.18,1.26.87,1.84,1.2,2.89,1.68,9.11,2.66,9.07,3a9.52,9.52,0,0,1-2.48.06,16.74,16.74,0,0,1-2.44-.3c-.12,0-.7-.14-1.47-.38a19.07,19.07,0,0,1-2.35-.9,22.56,22.56,0,0,0-2.49-1c-.52-.16-1.09-.43-1.33.06a.14.14,0,0,0,0,.06,1.91,1.91,0,0,0,.29,1.38,2.75,2.75,0,0,1-1.07,3.41,28.28,28.28,0,0,1-3.43,2.27c-1.07.62-2.42.67-3.14,2-.26.47-1.46.63-2.22.59-1.92-.08-3.83-.43-5.74-.56-2.11-.15-3.45-1.77-4.35-3.11-1.78-2.7-4.13-2.78-6.7-2.36a25.62,25.62,0,0,0-5.81,1.59c-5.06,2.14-9.59,10.32-8.68,16.25a160.38,160.38,0,0,0,8.63,31.57c2.15,5.76,4,11.65,5.77,17.52.44,1.45.32,3.07.52,5.23a45.94,45.94,0,0,1-4.77-3.87,42,42,0,0,1-6.54-9.43,55.26,55.26,0,0,0-4-6.28,9.83,9.83,0,0,0-2.6-2.37,60.61,60.61,0,0,0-8.23-5.26c-3.48-1.63-7.07-3.47-9.9-6.34-1.52-1.55-3.6-2.58-5-4.21a156.78,156.78,0,0,1-10.22-13c-3-4.35-6-8.78-7.44-14-.41-1.47-.53-3-2-4.08a2.09,2.09,0,0,1-.38-1.77c.6-2.45-.54-4.45-1.44-6.55a15.88,15.88,0,0,1-1.32-3.84c-1.13-7.58-1.67-15.23-.53-22.8.8-5.17,1.38-10.35,2-15.54a37.4,37.4,0,0,1,3-10.22c2-4.78,3.75-9.68,5.62-14.51.26-.68.49-1.59,1-1.91,2.31-1.4,2.39-4,3.53-6,1.43-2.54,3-5,4.47-7.53s2.51-4.91,3.87-7.29c1.45-2.54,3.12-5,4.59-7.48.89-1.57,1.57-3.27,2.4-4.88a15.3,15.3,0,0,1,1.49-2.27c2.13-2.63,4.3-5.23,6.41-7.88a3.74,3.74,0,0,0,.79-1.74c.11-.86.16-1.61,1.23-1.84.26-.06.54-.51.62-.84,1-3.92,3.95-6.56,6.16-9.68,2.51-3.49,5.14-6.91,7.74-10.34q4.15-5.48,8.38-10.91c1.67-2.17,3.35-4.34,5.12-6.42a28.15,28.15,0,0,1,3.49-3.5c.44-.36,1.28-.22,1.95-.29v.07c-1.78,2.59-3.58,5.18-5.56,8a8.78,8.78,0,0,0,5.35-3.81l1.88.39c-.26.23-.08.94-.11,1.43.57-.1,1.46,0,1.63-.33a19.5,19.5,0,0,0,1.1-3.06ZM533,155a1.77,1.77,0,0,0,0-.23l-.38,0c0,.08,0,.21,0,.22S532.83,155,533,155ZM498.08,68.87c.06,0,.32-.27.63-.54l-1.07-.74c-.09.2-.32.49-.26.6A2.17,2.17,0,0,0,498.08,68.87Zm-1.4,44c.12.07.45-.17.95-.38-.81-.59-1.18-.87-1.59-1.11a2.53,2.53,0,0,0-.39.52A4.5,4.5,0,0,0,496.68,112.9Zm-2.38-5.82c0-.06,0-.15,0-.24l-.35.12.15.2C494.15,107.14,494.27,107.14,494.3,107.08Zm-9.06,63.2c-.21-.45-.41-.9-.61-1.36l-.28.12c.18.44.38.87.57,1.31Zm-7.33,18.48a1,1,0,0,0-.27-.67,1.08,1.08,0,0,0-.42-.23,1,1,0,0,0-.49-.34,1,1,0,0,0-.74.09,1.06,1.06,0,0,0-.44.58,5.55,5.55,0,0,0,.17,2.59,1,1,0,0,0,1.74.23A4,4,0,0,0,477.91,188.76Zm-9.5,11.42c2.19-.29,2.58-1,2.3-3.17a62.75,62.75,0,0,1-.57-6.26c-.06-1.46.25-2.92.25-4.37,0-2.12-.41-2.57-2.41-3-.9-.18-1.81-.29-2.7-.47-3.34-.67-5.09-.36-6.87.31a9.15,9.15,0,0,0-2.35,1.29c-.39.29-.76.6-1.14.9l-1.6,1a27.32,27.32,0,0,0-3.13,3,32.55,32.55,0,0,0-3.3,4,3.27,3.27,0,0,1-1,1.19c-.59.37-1.78.33-2.4,1.06-.78.93-.87,1.46-.7,1.91a1.52,1.52,0,0,0,2,.62,4.07,4.07,0,0,1,1.23-.51,1.16,1.16,0,0,1,.35,0,2.58,2.58,0,0,1,1.46.52,5,5,0,0,0,2,.75c1.89.29,3.79.45,5.69.68l8.17,1S466.87,200.38,468.41,200.18ZM410.53,12.4l-.41-.29a2.76,2.76,0,0,0-.18.39s.17.15.21.13A2.14,2.14,0,0,0,410.53,12.4ZM359.1,72l-.54-.28c-1,1.26-2.05,2.45-2.94,3.76-.49.72-1,1.68.06,2.42.8.55,1.81,0,2.24-1.25C358.42,75.14,358.72,73.56,359.1,72Zm-5.66,123a1.84,1.84,0,0,0,.36-1.7,1.81,1.81,0,0,0-.78-.93.93.93,0,0,0-.92-.77,1,1,0,0,0-1,.95c0,1-.33,4.16,0,5.09a1,1,0,0,0,.44.56.93.93,0,0,0,.61.11c.47,0,1.2-2.65,1.21-3.13C353.43,195.06,353.44,195,353.44,195Zm-5-132.37.42-.62-.36-.39c-.17.18-.41.34-.49.55S348.31,62.43,348.46,62.58ZM346,69.3c.51-.58.95-2,.64-2.37-.76-1-1.27.43-2,.65a3.92,3.92,0,0,0-2.52,3c-.09.29.19.7.42,1.46A26,26,0,0,0,346,69.3Zm.32,15.24c0-.06-.25-.18-.44-.29a3,3,0,0,0-.29.71c0,.08.3.2.46.3A4.22,4.22,0,0,0,346.27,84.54Zm-1.62-6.07c.06-.16-.18-.56-.36-.62a.76.76,0,0,0-.69.22A8.79,8.79,0,0,0,342,80.88a7.48,7.48,0,0,1-3.68,5.4c1.7.61,3,1.26,3.67-.14A77.36,77.36,0,0,0,344.65,78.47Zm-4,17.06s-.12-.12-.17-.18-.46,0-.51.1a20.76,20.76,0,0,0-2.84,7.87c0,.45.29.93.45,1.4.34-.35.89-.65,1-1.06C339.29,101,339.94,98.24,340.61,95.53Zm-1.13,41.71c0-.22-.41-.51-.63-.76-.21.24-.58.47-.61.74-.15,1.7-.23,3.4-.34,5.1l.73.16C338.93,140.74,339.25,139,339.48,137.24Zm-.75-46.18c.11.1.53-.23,1.09-.49-.51-.43-.78-.78-1.12-.89s-.59.2-.88.32A5.47,5.47,0,0,0,338.73,91.06Zm-4.5,13.79c.07-.18-.44-.85-.71-.86-.84,0-1.33.46-1.16,1.92,0,0,.38.48.71.93A15.38,15.38,0,0,0,334.23,104.85Zm-8.52-11.69c.08-.13.22-.27.21-.39s-.23-.15-.35-.23c-.08.12-.15.26-.23.38Zm-.57,14.89c0-.32-.39-.69-.61-1.06-.3.28-.8.53-.84.83a9.9,9.9,0,0,0,.15,2.09l.65.11A9.88,9.88,0,0,0,325.14,108.05Zm-.78-21.41.34-.38-.55-.34c-.07.15-.21.33-.18.46S324.22,86.55,324.36,86.64ZM311.84,99.07c0-.16-.19-.4-.3-.6l-.81.93c.29.25.46.4.64.54A3.51,3.51,0,0,0,311.84,99.07Zm-2.52,7.42a.91.91,0,0,0-.42-.82.93.93,0,0,0-.86.37c-.39,1-.67,2.15-1,3.23l.83.31C308.38,108.56,308.91,107.55,309.32,106.49Zm-8-33.21c.36-.62.71-1.24,1.08-1.86l-.57-.35-1.13,1.8Zm-4.11,38.79c.09-.19-.17-.58-.37-1.16-.4.48-.73.7-.77,1s.17.61.28.91C296.61,112.55,297,112.37,297.17,112.07Z"/><path d="M316.57,44.23c-.05.15-.1.3-.16.44-.41-.25-.81-.51-1.22-.75Z"/><path d="M315.19,43.92l-.19,0v-.06h0Z"/><path d="M315,43.82v.06l-.06,0Z"/><path d="M314.94,43.86l.06,0c0,1,.26,2.26-.22,3s-2.07.53-2.62,1.2a17.53,17.53,0,0,0-1.9,3.74l-.15.16a22.91,22.91,0,0,0-2.62,2l-1.88-.39c.43-.55.84-1.12,1.26-1.67,1-1.27.51-2.16-1.05-2.55v-.07h0c1-2.43,1.61-2.77,4.14-2.78a3,3,0,0,0,1.76-.93c.58-.56.9-1.38,1.45-2S314.47,43,314.94,43.86Z"/><path d="M297.45,286.69c.14.18.07.52.14,1.17l-.87,1.11a14.6,14.6,0,0,1-.93-1.15,1.07,1.07,0,0,1-.24-.75,11.78,11.78,0,0,1,.7-1.54A16.43,16.43,0,0,1,297.45,286.69Z"/><path d="M267.3,95.29c.13.55.28.81.21,1a4.28,4.28,0,0,1-.63.73c-.09-.2-.27-.44-.22-.6A5.24,5.24,0,0,1,267.3,95.29Z"/><path class="cls-1" d="M285.66,424.77c4-2.46,9.45-2.1,14.38-2.58a55.08,55.08,0,0,0,7.24-1.16c12-2.74,19.48-9.2,24.4-18.77,6.67-13,12.72-31.77,10.42-42.17"/><path class="cls-2" d="M523.31,273.25c-.15.47-.31.95-.48,1.42s-.25.73-.37,1.08c-3.84,10.55-9.57,17.71-15.12,29.6"/><path class="cls-2" d="M530.28,237c.86,2.95-.42,8.49-1.8,13.66-1,3.83-2.08,7.45-2.38,9.69a73.78,73.78,0,0,1-2.78,12.88"/><path class="cls-2" d="M491.2,354.71c-1.29,8.06.16,16.31,2.3,24.18,2.41,8.83,5.8,17.57,11.54,24.7s14.08,12.53,23.21,13.12"/><path class="cls-3" d="M413.11,391.54a7.45,7.45,0,0,1,3.4-.86c.76,0,1.53,0,2.29-.05,15.38-.26,32.66-19.39,24.74-10.95"/><path class="cls-4" d="M320.32,207.71c.66.21,1.25.39,1.77.57a49.19,49.19,0,0,1,5.69,2,29.88,29.88,0,0,0,4.75,1.18,10.86,10.86,0,0,0,4.81-.26"/><path class="cls-5" d="M400.51,334.6c2.47,1,4.56,2.64,7,3a7.18,7.18,0,0,0,1.61,0,18.71,18.71,0,0,0,4.7-.79c5-1.87,7.21-3.09,10.46-4.55"/><path d="M755.38,523.26c-.36.47-.66.77-.62.81a13.59,13.59,0,0,0,1.4,1.53c.06.06.41-.19.63-.29Zm-448.92-103c.33.06.9.36.88.48a2.8,2.8,0,0,1-.06.28,1.57,1.57,0,0,1-.49.84,24.5,24.5,0,0,1-3,2q-10.06,5.7-20.16,11.36a32.58,32.58,0,0,0-3.29,2c-1.15.84-1.12,1.49-.07,2.42a5.62,5.62,0,0,0,.91.62c6.59,3.85,13.34,7.37,20.72,9.53,5,1.47,10,3,15.09,4.33a113.82,113.82,0,0,0,12.12,2.52A133.43,133.43,0,0,0,343.67,458c3.36.12,6.74-.5,10.11-.8,1-.09,2-.24,3-.28,7-.28,13.76-2,20.45-3.89a11.85,11.85,0,0,1,1.88-.4c6.92-.92,13.84-1.87,20.76-2.73,8.49-1.06,17-1.22,25.55-1.62,11.19-.52,22.2.78,33.26,1.82,6.95.65,13.88,1.39,20.83,2.06,1.18.11,2.39.11,3.57.11A73,73,0,0,1,499.25,454c6.44,1.45,12.18-.13,17.43-3.89,1.94-1.39,3.8-2.89,5.69-4.34a34.76,34.76,0,0,1,9.28-4.78,36.59,36.59,0,0,0,10.87-6.35c2.66-2.24,5.7-4,8.52-6.06a13.71,13.71,0,0,0,1.8-1.85c-.64-.6-1.18-1.44-1.94-1.77-3.11-1.35-6.31-2.54-9.47-3.76a27,27,0,0,1-3.83-1.65c1.38-.52,2.77-.23,4.14-.2,3.39.1,6.78.19,10.16.35a24,24,0,0,1,4.66.42c3.86.9,7.66.45,11.5,0a54.66,54.66,0,0,1,8.77-.33c3.85.18,7.68.7,11.53,1a8.82,8.82,0,0,0,3-.22c3.43-1,6.3.25,9.08,2,1.64,1,3.15,2.26,4.83,3.19,1.25.71,2.7,1.06,4,1.65,1.66.75,3.31,1.54,4.89,2.43,2.44,1.41,4.71,2.14,7.44.38,1.52-1,3.5-.75,5.3.06a5.28,5.28,0,0,0,3.12.68c5.39-1.41,9.79.88,13.91,3.71,3.84,2.63,7.31,5.79,11,8.58,2,1.52,4.18,3,6.91,3.19,2.92.24,5.81.81,8.74,1A20.71,20.71,0,0,1,682.76,452a5.45,5.45,0,0,1,1,1.54,20.8,20.8,0,0,0,1.14,2.08c2.3,3.19,5.76,4.85,9,6.79,3.62,2.16,7.16,4.45,10.73,6.69q3,1.89,6,3.81c.9.57,2,.93,2.14,2.3,0,.31.79.76,1.23.78,2,.07,3.05.89,3.91,2.9.72,1.67,2.66,2.82,4.1,4.26-.5.24-1.62.48-.72,1.65.17.21.34.52.57.58,4,1,4.38,5,6.32,7.68,2.67,3.69,4.85,7.72,8.11,11,1.93,1.92,3.75,3.95,5.57,6,.84.95,1.46,2.06,3.07,1.85.6-.08.87.44.37,1.13a1.44,1.44,0,0,0,.18,1.35c1.25,1.33,2.7,2.48,3.89,3.86,2.34,2.7,5.87,3.77,8.32,6.33,1.33,1.39,2.41,2.73,2.4,4.75a2.75,2.75,0,0,0,.3,1.32,1.53,1.53,0,0,0,.89.55c.07,0,.32-.34.44-.56.21-.39.36-.8.54-1.19a6.52,6.52,0,0,1,1.36.81c1.88,1.89,3.69,3.83,5.55,5.72s4.25,3.84,5.94,6.08,3.94,3.7,5.64,5.79c1.2,1.49,2,3.33,3.28,4.69s3,2,4.29,3.24c2.32,2.15,4.5,4.46,6.68,6.75a10.57,10.57,0,0,1,1.73,2.47,11.78,11.78,0,0,0,2.37,3.42H.25a34.21,34.21,0,0,1,11.91-5.34,6.51,6.51,0,0,0,3.93-2.29c5.7-6.83,11.38-13.69,17.2-20.42,1.47-1.7,3.47-2.94,5.2-4.43,2.49-2.15,5-4.28,7.43-6.51,2.16-2,4.2-4.11,6.3-6.17a18.63,18.63,0,0,1,2-1.86c4.48-3.35,8.93-6.76,13.51-10C73.3,507.52,79,503.8,84.61,500c.83-.57,1.74-1,2.62-1.51a27.12,27.12,0,0,0,6.89-5,23.89,23.89,0,0,1,7.18-5.33,22.36,22.36,0,0,1,8-2.58,3,3,0,0,0,1.88-1.3,50,50,0,0,0,2.8-4.74c1.8-3.3,3.36-6.75,5.35-9.94a28.35,28.35,0,0,1,10.13-9.45,7.65,7.65,0,0,1,2.41-.45l10.31-1.62a3.45,3.45,0,0,0,.8-.17c6.8-3.34,14.49-3,21.54-5.34,4.89-1.61,9.78-3.19,14.62-4.91,4-1.42,8.15-1.31,12.28-1.1a7.25,7.25,0,0,1,3,1.22,8.16,8.16,0,0,0,4.92,1.43,5.19,5.19,0,0,1,2.66.56,8.53,8.53,0,0,0,8.13,0,6.9,6.9,0,0,1,4.53-.37c2.9.59,5.68.53,7.76-2.54a8.24,8.24,0,0,1,4.76-3c3.5-.77,6.5-2.46,9.54-4.14a60.72,60.72,0,0,1,13.34-5.1c3-.82,6-1.65,9.06-2.22,2.27-.42,4.41-1.71,6.49-2.83a37.21,37.21,0,0,0,4.79-3.23,24.21,24.21,0,0,0,3.54-3c3.46-3.77,7.59-5.78,12.76-4.79a91.37,91.37,0,0,0,17.55,1.42A11.51,11.51,0,0,1,306.46,420.27ZM762.51,533.09c.08,0,.17.12.23.1s.26-.18.38-.26c-.13-.08-.27-.14-.41-.22C762.64,532.83,762.58,533,762.51,533.09Z"/><path d="M534.56,104.76c.12.46.22.91.34,1.36l-.35,0C534.55,105.7,534.55,105.23,534.56,104.76Z"/><path d="M534.56,104.63v.13l0-.12Z"/><path d="M534.54,104.64s0,0,0,0l.06,0h0Z"/><path d="M534.5,104.6a4.77,4.77,0,0,1-.94-.34c-.14-.08-.15-.4-.22-.62a2.1,2.1,0,0,1,.48.2C534.06,104.07,534.27,104.35,534.5,104.6Z"/><path d="M532.22,112.55l1.14,1.54-.39.25-1-1.62Z"/><path d="M534.5,129.91a2.39,2.39,0,0,1-1.84-1.31,15.12,15.12,0,0,1-.74-4.31C532.74,126.08,533.56,127.88,534.5,129.91Z"/><path d="M525.73,121.9c0,.06-.1.18-.11.18a2.21,2.21,0,0,1-.34-.18.68.68,0,0,1,.09-.17A2.37,2.37,0,0,1,525.73,121.9Z"/><path d="M522.59,114.39c1.85,1.46,2.11,2.25,1.69,5.18C523.66,117.67,523.18,116.17,522.59,114.39Z"/><path d="M523.32,273.22a25.88,25.88,0,0,0,.6-5,28.65,28.65,0,0,1,2.18-7.93A73.78,73.78,0,0,1,523.32,273.22Z"/><path d="M522.51,275.4a7.71,7.71,0,0,0,.32-.73c-.11.36-.25.73-.37,1.08A.58.58,0,0,1,522.51,275.4Z"/><path d="M519.84,109.72c-.91,0-2-1.56-1.56-2.23a.92.92,0,0,1,.67-.24,16.17,16.17,0,0,1,1.29,2C520.29,109.29,520,109.58,519.84,109.72Z"/><path d="M516.43,76.55s-.08.14-.12.22l-.4-.24.14-.23A4.13,4.13,0,0,1,516.43,76.55Z"/><path d="M507.16,109.35a6.71,6.71,0,0,1,1.66,3.91,5.23,5.23,0,0,1-2.76-3.44c-.06-.21.12-.7.2-.7C506.56,109.12,507,109.15,507.16,109.35Z"/><path d="M503.92,109c-1.13-1.87-2.27-3.74-3.34-5.65-.13-.23.09-.65.15-1,.32.11.81.11.92.31,1.05,2,2.68,3.71,2.84,6.08Z"/><path d="M477.91,188.76a4,4,0,0,1-.45,2.25,1,1,0,0,1-1.74-.23,5.55,5.55,0,0,1-.17-2.59,1.06,1.06,0,0,1,.44-.58,1,1,0,0,1,.74-.09,1,1,0,0,1,.49.34,1.08,1.08,0,0,1,.42.23A1,1,0,0,1,477.91,188.76Z"/><path d="M458,305.8a12,12,0,0,1,3.35-1.17c.66-.1,1.42.5,2.14.78-.33.7-.48,1.69-1,2a14.81,14.81,0,0,1-3.23,1.1,7.08,7.08,0,0,0-2.19-.08l-.33-2.06Z"/><path d="M451.84,128.26s0,.08,0,.11l0,0C451.85,128.36,451.85,128.32,451.84,128.26Z"/><path d="M451.62,126.65c.07.53.15,1.07.22,1.61l-.56-1.55Z"/><polygon points="429.5 78.72 429.41 78.88 429.32 78.73 429.5 78.72"/><path d="M429.08,274.79c1.15.53,1.1,1.4,0,2.06a3.8,3.8,0,0,1-1.74.74,18.92,18.92,0,0,0-5.9,1c-.67.23-1.94-.72-2.66-1.41-.23-.22.3-1.48.73-2.09a5.54,5.54,0,0,1,4.15-2.14A52.71,52.71,0,0,1,429.08,274.79Z"/><path d="M407.55,337.59a1.61,1.61,0,0,1-.15.68c-.45,1.14-1.83,1.53-3.34.68a8.63,8.63,0,0,0-7.1-.88c-2.26.64-4.56-.07-6.69-1a14.24,14.24,0,0,0-2.51-1.11,10.84,10.84,0,0,1-6.37-3.95c-1-1.26-3.15-1.65-4.79-2.43-.57-.26-1.35-.34-1.71-.78-2-2.51-4.93-3.46-7.76-4.49a10.3,10.3,0,0,1-4.94-3.79c-1.72-2.39-.8-4.5,2.14-4.91a2.72,2.72,0,0,1,1.1,0c5,1.44,9.82-.33,14.67-1a33.15,33.15,0,0,0,8.07-2.64c2.24-.9,4.37-1.38,6.65-.39,2,.87,4,.21,6-.11a3.27,3.27,0,0,1,3,.73,4.21,4.21,0,0,0,4.58,1A4.2,4.2,0,0,1,410,313c4.3.11,8.6.28,12.9.39a4,4,0,0,0,1.83-.33,3.78,3.78,0,0,1,3.42-.2,2.07,2.07,0,0,0,1.63-.3c.76-.49,1.35-1.23,2.09-1.78.31-.23,1.07-.42,1.17-.28,1.32,1.66,2.85.65,3.95.05a10.81,10.81,0,0,1,6.88-1.38c.35,0,.86.09,1.06-.1,1.66-1.59,3.74-1.33,5.71-1.28a14,14,0,0,0,6.08-1.39l.33,2.06a22,22,0,0,0-5.48,1.92,79.86,79.86,0,0,1-13.6,4.28c-7.17,1.51-14.19,3.71-21.29,5.61-1.86.49-3.71,1.06-5.59,1.44-5.4,1.09-10.81,2.11-16.22,3.12a11.3,11.3,0,0,1-2.18.12c-.46,0-.92-.14-1.37-.13-1.33,0-2.61.26-3.28,1.57-.43.85.44,2.05,2.06,2.9a5,5,0,0,0,2.31.8c2.73-.19,5,1,7.28,2.13a65.35,65.35,0,0,1,6.22,3.48C406.63,336.14,407.55,336.65,407.55,337.59Z"/><path d="M403.65,281.3a2.29,2.29,0,0,1,.4.8c0,1.17-1.17,2-1.92,1.28-2.69-2.4-5.78-1.77-8.88-1.6a7,7,0,0,1-2.63-.56c-1.21-.42-2.35-1-3.53-1.48-1.41-.59-1.62-1.42-.61-2.44,2.5-2.52,8-3.44,11-1.43A55,55,0,0,1,403.65,281.3Z"/><path d="M381.64,13.55c-.2.13-.41.37-.6.35s-.3-.32-.45-.5l.63-.49Z"/><path d="M416.51,390.68c-.86,2.5-2.52,3.36-5.85,2.93-1.81.1-3.61.29-5.42.29a5.28,5.28,0,0,1-2.32-.66,6.18,6.18,0,0,0-3.7-.52c-2.65.26-5.31,0-7.49-1.74a6.13,6.13,0,0,0-4-1.58,6.5,6.5,0,0,1-4.45-1.81,38.68,38.68,0,0,0-4.2-2.58c-1.68-1.1-3.33-2.27-4.94-3.46-.31-.23-7.42-6-7.61-6.38.49,0,8.07,5,8.47,5.18a38.05,38.05,0,0,0,4.5,2c2,.52,4.15.58,6.22.93a17.92,17.92,0,0,1,4.2,1,9.58,9.58,0,0,0,7.44.59,6.06,6.06,0,0,1,5.69,1.18,6.19,6.19,0,0,0,3.52,1.05,68.38,68.38,0,0,0,8.94.61c1.07-.06,1.57.69,1.28,1.89A9,9,0,0,1,416.51,390.68Z"/><path d="M369,380.49c-.09.11-.16.32-.26.33s-.25-.13-.37-.21c.08-.12.15-.32.25-.34S368.89,380.4,369,380.49Z"/><path d="M364.64,378a3,3,0,0,1,.6.68c-.21.11-.44.35-.61.29s-.47-.34-.88-.66C364.22,378.17,364.51,378,364.64,378Z"/><path d="M363.07,103.8c-.2.35-.34.57-.47.79-.18-.12-.52-.23-.52-.36a1,1,0,0,1,.31-.67C362.46,103.49,362.78,103.69,363.07,103.8Z"/><path d="M362.26,108.49c.91,2.49-.08,4.33-.52,6.22,0,.16-.41.27-.65.31s-.34-.22-.34-.34A9.23,9.23,0,0,1,362.26,108.49Z"/><path d="M354.2,97.48l.51.07c-.25,1.67-.46,3.34-.78,5-.06.35-.54.61-.83.92-.1-.46-.37-1-.26-1.36C353.23,100.55,353.74,99,354.2,97.48Z"/><path d="M351.17,197.59c-.36-.93,0-4.11,0-5.09a1,1,0,0,1,1-.95.93.93,0,0,1,.92.77,1.81,1.81,0,0,1,.78.93,1.84,1.84,0,0,1-.36,1.7c0,.06,0,.11,0,.18,0,.48-.74,3.08-1.21,3.13a.93.93,0,0,1-.61-.11A1,1,0,0,1,351.17,197.59Z"/><path d="M352.08,92.26a13.89,13.89,0,0,1,.43-1.43c.31.45.56.66.54.83a3.38,3.38,0,0,1-.38.93C352.46,92.48,352.08,92.34,352.08,92.26Z"/><path d="M541.83,217.58c-1.06.11-2.2,0-3.17,1C541.25,219.19,541.29,219.2,541.83,217.58Zm.13-.1a4,4,0,0,0,.63-.26,1.54,1.54,0,0,0,.27-.41c-.2,0-.48,0-.59.07A1.79,1.79,0,0,0,542,217.48Zm1.93-5.44c-.11.06-.13.57,0,.71.81.9,1.72,1.75,3.05,1.45a2.79,2.79,0,0,0,1.57-.9c.49-.65-.11-1-.6-1.53-1.3-1.32-.76-2.69,1-3.08a16.72,16.72,0,0,0,2.86-.83c.9-.38,1.63-1,1-2.09-.06-3.19-1.36-3.59-3.71-4-1.25-.18-1.36.29-1.49,1.29a4.75,4.75,0,0,1-.91,2.1,28.8,28.8,0,0,1-2.66,3.08c-.8.82-.91,1.58,0,2.34C544.63,211.19,544.74,211.59,543.89,212ZM388.58,17.55a2.55,2.55,0,0,0-.3.26,2.45,2.45,0,0,0,.39.08s.05-.13.08-.2A1.17,1.17,0,0,0,388.58,17.55ZM357,105.94c-1.92-.71-1.37-2.11-1.09-3.45a45.54,45.54,0,0,1,1.28-5.63,12.27,12.27,0,0,0,.17-6.41l-1.51,2.45c-.71-2.45.8-4.55-.48-7-.26,1.16-.36,1.84-.58,2.48-.09.28-.42.49-.63.74-.19-.28-.53-.55-.55-.84-.06-1.23,0-2.46,0-3.71l-.7,0c-2.44,4.08-3.3,8.66-4.13,13.26a2.22,2.22,0,0,0,0,1.09c.54,1.37,0,2.47-.66,3.62a13.81,13.81,0,0,0-1.29,4.64c-.7,4.38.55,9.06-1.91,13.18a.77.77,0,0,0-.09.53c.58,1.77-.11,3.44-.32,5.16a2,2,0,0,0,.55,1.62c2.39,1.63,2.41,1.59,1.72,4.22-.75,2.84-1.49,5.69-2.18,8.54a8.73,8.73,0,0,0,.14,2c.76-1.09,1.41-1.62,1.52-2.26a30.61,30.61,0,0,1,2.19-6.17c1.09-2.81,1.71-5.81,2.55-8.71.78-2.73,1.46-5.47,3.67-7.58a6.18,6.18,0,0,0,1.42-2.94c.55-2.41.94-4.87,1.31-7.31C357.53,106.93,357.33,106.05,357,105.94Zm-23.7-16.62a29,29,0,0,0,1.89-3.78c1-2.81,1.74-5.69,2.57-8.54,0-.07-.21-.21-.53-.51a56.08,56.08,0,0,0-3.88,8.09A5.31,5.31,0,0,0,333.34,89.32Zm-2,3.67a7.59,7.59,0,0,0-1.17.93,3.61,3.61,0,0,0-.39,1q-.93,2.27-1.89,4.53a8,8,0,0,0-.66,1.5,5.31,5.31,0,0,0,.14,1.46c.38-.2.91-.31,1.11-.62,1.46-2.32,3-4.63,3.4-7.77Zm1.53-3.41c-.56.07-1.21.09-.86.93.12.29.47.5.71.74a7.6,7.6,0,0,0,.6-1.08,1.92,1.92,0,0,0,0-.72A4.12,4.12,0,0,1,332.86,89.58Zm-32.24,6.91c-.47.89-.48,1.58.84,1.6a3.91,3.91,0,0,1,1.09.37c-.28.33-.59,1-.82,1h0c-2.2-.26-2.41.76-1.73,2.47a1.26,1.26,0,0,1,0,.54l-.33.16c.32.64.48,1.61,1,1.84.93.43,1.73-.22,2.21-1.1a10,10,0,0,0,.61-1.23c.19-.53.35-1.1.55-1.63a4.36,4.36,0,0,1,1.7-2.3c.23-.15.31-.63.31-1a3.71,3.71,0,0,0-3-3c-.54,0-1.13.93-1.66,1.47A3.31,3.31,0,0,0,300.62,96.49Zm219.28,40a2.16,2.16,0,0,0-.23.66,2.52,2.52,0,0,0,.53.19,4.34,4.34,0,0,0,.12-.69C520.31,136.61,519.91,136.49,519.9,136.51ZM506,85.63c.81,1.05,1.72.46,2.37-.57-2.21-.79-2.17-.79-2.13-3a10.2,10.2,0,0,0-.33-2c-.63,1.56-.63,1.56-2.8.71A41.79,41.79,0,0,0,506,85.63Zm-2.42,41.24c-.13.12-.49.35-.46.43.37,1.08.8,2.15,1.26,3.2a1,1,0,0,0,.7-.14C505.59,129.71,504.5,127,503.53,126.87Zm-.28-2.91a1.78,1.78,0,0,0,.31-.23l-.33-.3a1.57,1.57,0,0,0-.14.38S503.23,124,503.25,124Zm2.18-.75c.18.58.35,1.15.52,1.73l.42-.14c-.18-.57-.37-1.14-.56-1.72Zm-4.53,4a19.09,19.09,0,0,0-.32-3.14,11.42,11.42,0,0,0-1.28-2.63.71.71,0,0,0-.69-.15.67.67,0,0,0-.25.66c.69,1.81,1.44,3.6,2.18,5.39Zm.53-66.12.19-.09a2.94,2.94,0,0,0-.26-.39s-.13,0-.19.09S501.34,61,501.43,61.08Zm0,59.12c.07.23.56.31.86.46.14-.3.45-.65.39-.89a23.39,23.39,0,0,0-.94-2.4l-.88.29C501,118.51,501.14,119.38,501.4,120.2Zm-9.83,55.63c-.21-1-.4-1.94-.69-2.87-.56-1.73-1.61-3.41-1.69-5.16A9.74,9.74,0,0,0,487.6,163a7.21,7.21,0,0,1-1.21-4.42,6.6,6.6,0,0,0-2.12-5,42.89,42.89,0,0,0,1.31,8,71.8,71.8,0,0,0,2.94,8.26C489.39,171.86,490.52,173.82,491.57,175.83Zm2.28-84A4.86,4.86,0,0,0,491,88C491.38,90.09,492.71,90.87,493.85,91.8Zm-2,84.45c.38.4.77.78,1.15,1.17.12-.17.26-.35.38-.53Zm7.19-39.19a88.49,88.49,0,0,0-3.42-17,11.9,11.9,0,0,0-1.07-2.18,29.62,29.62,0,0,1-2-3.54c-1.85-4.77-3.17-9.75-5.73-14.24a7,7,0,0,0-.69-.93l-.54.26c.33.89.74,1.77,1,2.69,1.11,4.19,3.32,8.1,3.35,12.58,0,1,.73,2.45-1.38,1.88,0,0-.4.74-.3,1q1.85,5.75,3.8,11.47c.28.78.36.74,1.6.4a.76.76,0,0,1,.65.19,20,20,0,0,1,1,2q1.83,4.13,3.64,8.25l.58-.22C499.35,138.83,499.13,138,499.05,137.06Zm-18.26-10.65c-.08-.14-.12-.35-.24-.4s-.27.14-.4.21c.08.14.15.28.24.43Zm2-1.87c.49,1.57,1.2,3.06.78,4.81a1.61,1.61,0,0,0,.64,1.35c1.47,1,2.92,1.87,3.57,3.64a1,1,0,0,0,.93.29,1,1,0,0,0,.48-.83,17.7,17.7,0,0,0-.39-2.71c-.36-1.61-.79-3.19-1.19-4.78-1.21-4.8-3.38-9.24-5.25-13.78l-.8.18c.3,1.2.59,2.41.9,3.62.44,1.68.93,3.35,1.32,5a1.9,1.9,0,0,1-.27,1.17C481.31,122.5,482.59,123.84,482.81,124.54ZM473.17,122c.21.87.36,1.76.5,2.64.26,1.6.38,3.25.79,4.82.32,1.28.68,2.48-.07,3.74-.54-3.46-3.12-6.31-2.8-10a2.79,2.79,0,0,0-.41-1.29c-.71-1.58-1.43-3.16-2.19-4.71-.34-.72-.36-1.14.57-1.4s1.08-.82.61-1.87c-.88-1.9-1.42-4-2.11-5.94-.43-1.25-.25-3.11-2.55-2.49-.19,0-.64-.4-.79-.69a19.3,19.3,0,0,1-1.32-3c-.58-1.93-1-3.9-1.55-5.84a1.92,1.92,0,0,0-2-1.66c2.39,8.44,4.95,16.53,7.13,24.78a7.29,7.29,0,0,1-2.24-3.09c-.43-1.89-1.71-3-3.08-4.93.17,1,.19,1.39.28,1.73,1.47,5.42,2.93,10.82,4.43,16.22a9.76,9.76,0,0,0,.91,2.3c.23.4.78.61,1.19.9a4.05,4.05,0,0,0,.49-1.17c.08-1.06,0-2.12,0-3.18l.61-.08c.46,1.74.86,3.49,1.4,5.2a24.06,24.06,0,0,0,1.53,3.81c.3.59,1.1.93,1.47,0,.67-1.67,1.26-.74,1.93-.07s1.22.49,1.31-.39c.39-3.54,1.25-7.16-.63-10.51a18.3,18.3,0,0,1-2.05-5.64c-.14-.79-.31-1.86-1.38-1.61-.33.08-.47,1.36-.52,2.11C472.64,121.16,473.06,121.57,473.17,122ZM444.52,99.45c-.06,0-.18,0-.26,0s-.17.17-.15.22c1.91,4.84,3.82,9.69,5.78,14.53a1,1,0,0,0,.82.45,1,1,0,0,0,.52-.84c-.31-1.22-.75-2.41-1.13-3.63-.24-.77-.18-1.38.86-1.07s1.44-.24,1.49-1.06a11.17,11.17,0,0,0-.14-3.47c-.86-3.09-1.82-6.16-2.93-9.16-1-2.67-2.19-5.25-3.34-7.85-.28-.63-1-1.25-1.44-.52a14.75,14.75,0,0,0-1,3.55c2,1.83,2.19,4.26,2.27,6.75,0,.36.2.7.26,1.07.14.82,1.45,1.54.38,2.35C446.34,101,445.22,99.92,444.52,99.45ZM319.23,54a.85.85,0,0,0-.73.12,3.24,3.24,0,0,0-.95,1.25,3.61,3.61,0,0,0,.17,1.42c.38-.17.87-.24,1.12-.53a9.47,9.47,0,0,0,.9-1.59C319.52,54.32,319.42,54,319.23,54Zm-.16,56.81c-.37-.22-.61-.46-.73-.41a.82.82,0,0,0-.46.54c0,.16.23.37.36.56Zm.69-2.83c.31-.28.73-.51.88-.85q1.5-3.26,2.91-6.54a23.77,23.77,0,0,0,1.27-3.35,1.37,1.37,0,0,0-1.42-1.85c-1.4,0-3.82,2.73-3.29,4a5.9,5.9,0,0,1-.26,5,13.06,13.06,0,0,0-.57,2.65Zm1.06-56,.42-.12a1.83,1.83,0,0,0-.21-.39s-.2,0-.21.08A3.08,3.08,0,0,0,320.82,52Zm-10.56-.12a2.64,2.64,0,0,0,2.68-1.38c.54-1,1.22-1.1,2.29-.64a2.19,2.19,0,0,0,2-.33,38.86,38.86,0,0,0,3.6-4.09c.83-1.07,1.5-2.27,3.39-2.85-.19,1.25-.26,2.21-.46,3.14-.12.53-.54,1-.61,1.53a7.16,7.16,0,0,0,.15,1.71,4.76,4.76,0,0,0,1.16-1,32.93,32.93,0,0,0,2.4-4c1.45-3.12,3.9-5.48,6.06-8.06C334,34.62,334.81,33.17,336,32c1.36-1.32,3-2.38,4.45-3.58s4-1.84,4.4-4.55c.09-.58,1.74-.93,2.65-1.4,1.28-.68,2.56-1.36,3.8-2.09s2.23-1.74,3.5-2.14c2.67-.86,5-2.55,8-2.78,2.13-.16,4.21-1.24,6.26-2,4-1.51,3.5-1.36,6.26,1.7a14,14,0,0,1,1.45-1.2c.93-.6,1.83-.8,2.67.26.32.4.84.9,1.28.9,2.17,0,4.34-.11,6.51-.23,1.17-.06,2.32-.22,3.49-.22s2,.26,1.72-1.49c-.19-1.13,1-.85,1.62-.68,1.66.49,3.28,1.1,5,1.7.11-.84,0-1.75.36-2.14s1.35-.3,2-.52c1.47-.49,3.38.15,4.34-1.68a.63.63,0,0,1,.47-.25c4.07-.12,7.87-2.18,12-1.58.44.06,1,.26,1.34.06,3.38-2.18,6.8-.14,10.16,0,6.48.31,12.41,3,18.33,5.42,3.3,1.36,6.7,2.48,9.92,4,2.37,1.12,4.5,2.78,6.82,4,2.71,1.47,5.63,2.56,8.23,4.19a73,73,0,0,1,9.35,6.71c3.24,2.82,6.11,6.07,9.14,9.12.25.26.67.49.74.81.93,3.88,4.71,5.39,6.85,8.29,1.23,1.67,2.81,3,3.38,5.21a10.54,10.54,0,0,0,2,3.27c2.36,3.16,4.79,6.27,7.16,9.42a22.28,22.28,0,0,1,1.29,2.4,9.07,9.07,0,0,1-4.19-2.69c-1.35-1.59-2.74-3.18-4.16-4.71a3.57,3.57,0,0,0-3.84-.6,1.18,1.18,0,0,0-.3,1.07c.39.47,1,1.12,1.47,1.09,1.56-.09,2,.93,2.63,2a39.58,39.58,0,0,0,2.85,4c.5.64.87,1.18.21,1.9-1,1-.54,2.14,0,3.06,1.9,2.9,3.94,5.73,5.88,8.62a15,15,0,0,1,1,2.13,10.32,10.32,0,0,0,.87,2c.67.9,1,1.63.23,2.69-.65.88-.12,1.63.84,1.86,1.47.36,1.9,1.12,1.57,2.61-.14.6.33,1.37.62,2,.39.88.87,1.73,1.31,2.6l-.59.34c-.82-1.36-1.61-2.73-2.48-4a7,7,0,0,0-1.11-1.06,7.65,7.65,0,0,0-.17,1.43,11.79,11.79,0,0,0,.45,1.8,3.86,3.86,0,0,1-1.94-3.77c0-3.3-2.42-5.4-4-7.87-.11-.16-.7-.22-.72-.19a2.56,2.56,0,0,0-.32,1.22,46.86,46.86,0,0,0,3.78,12.88,17.41,17.41,0,0,1,.71,2,3.79,3.79,0,0,1-2.58-2.17,12.74,12.74,0,0,0-1.72-2.48c-.33-.32-1.1-.21-1.67-.3,0,.52-.27,1.12-.07,1.52.8,1.64,1.8,3.17,2.6,4.82a42.24,42.24,0,0,1,2.81,7.17,4.25,4.25,0,0,1-1-.93c-1-1.94-1.9-4-3-5.88-1.68-2.84-3.49-5.6-5.31-8.36-.2-.29-.73-.38-1.12-.56a3.36,3.36,0,0,0-.28,1.23,5.71,5.71,0,0,0,.66,2.07c1.32,2.19,2.75,4.32,4.44,7a7.67,7.67,0,0,1-3.56-2.77c-1.37-1.81-2.94-3.47-4.37-5.23A8.67,8.67,0,0,1,497.69,96a6.44,6.44,0,0,0-3.75-4,1.62,1.62,0,0,0,.15.42c1.09,1.9,2.8,3.69,3.14,5.71a22.15,22.15,0,0,0,1.71,6.23,27.7,27.7,0,0,1,2.46,6.35,13.16,13.16,0,0,0,2.7,5.33c1.15,1.45,1.66,3.44,2.31,5.25,1.3,3.63,2.48,7.3,3.75,10.94.14.42.34,1,.68,1.15,2.71,1.44,4.19,4,6.08,6.26.15.18.46.22,1.17.54-.22-1.16-.34-2-.53-2.84a2,2,0,0,1,.82-2.41c2-1.19,1.89-3,1.34-4.82s-1.19-3.43-2-5.67a3.55,3.55,0,0,1,2.2,2.42c1.38,3.28,2.59,6.67,4.12,9.87,2,4.21,4.3,8.29,6.71,12.37-.64-3.2.4-6.53-1.36-9.66s-1-6.63-.74-10c.05-.55.59-1,1.12-1.91l1.12,2.06c1.15,2.14,2.27,4.18,3.51,6.47.59-1.34.8-2.83,2.46-2,.07,0,.7-.63.67-.95,0-1-.33-2-.46-3,0-.15,0-.3-.05-.44-.11-.89-.17-1.79-.26-2.75.55.09.77.05.89.15.6.49,1.55,1.55,1.69,1.46,1.06-.77,0-1.6-.17-2.39-.51-1.9-1.71-3.67-.75-5.83.25-.56-.18-1.42-.28-2.15-.06-.44-.31-1.07-.11-1.3,1.57-1.82.16-3.24-.52-4.77a12.24,12.24,0,0,1-1-2.89c3.92,5.39,6.47,11.44,9.26,17.61.09-1.06.19-2.13.33-3.77.73,1.21,1.24,2,1.7,2.85,1.64,2.94,2.6,6.29,5.28,8.61.37.32.39,1,.67,1.49a9.39,9.39,0,0,0,1.48,2.21,15.14,15.14,0,0,1,3.74,5.37c1.55,3.73,3.37,7.36,4.72,11.15,1.49,4.2,2.58,8.54,3.81,12.82a2.71,2.71,0,0,1,.1,1.63c-.76,1.76-.18,3.43.14,5.13a15.59,15.59,0,0,1,0,7.06c-.52,2.06-.08,4.36-.12,6.55a4.9,4.9,0,0,1-.35,2.15,5.89,5.89,0,0,0-.44,4.78,2.55,2.55,0,0,1-.09,1.61c-.83,2.13-1.67,4.27-2.69,6.31a2.28,2.28,0,0,0-.15,2.54c.74,1.12.3,2-.38,3-1.33,2-2.46,4.07-3.71,6.09-1.06,1.7-2.19,3.36-3.26,5.06-.84,1.3-1.62,2.66-2.47,4-1.91,2.91-3.92,5.76-5.77,8.7-1.21,1.94-2.19,4-3.34,6-1.33,2.28-2.83,4.45-4.06,6.78-1.8,3.37-3.36,6.87-5.14,10.26-1.41,2.66-3,5.22-4.49,7.85a3.9,3.9,0,0,0-.74,1.94c.08,1.53-.37,2.49-1.92,2.84a3.25,3.25,0,0,0-2.36,2.46c-.47,1.49-1,3-1.55,4.41a4.23,4.23,0,0,1-.7,1.48c-.32.33-.92.38-1.39.55,0-.29-.14-.61-.14-.9s.26-.72.37-1.08a13.19,13.19,0,0,0,.48-1.42v0a73.78,73.78,0,0,0,2.78-12.88,41.36,41.36,0,0,0,2.38-9.69c0-.32.07-.66.1-1,.75-8.5,1.55-17,2.14-25.51.42-5.93.38-6.1-4.76-9.12a81.75,81.75,0,0,0-18.2-7.8,12.86,12.86,0,0,0-5.45.07c-4.22.69-8.39,1-12.45-.71a1.92,1.92,0,0,0-1.07-.24c-2.66.6-5-.68-7.53-1.08a50.67,50.67,0,0,0-6.87-.23c-1.68,0-2.86,0-4.4-.07-2.23-.05-3.44-.08-5-.17-1.13-.07-3.06-.27-6.93-.67-2.78-.29-3.39-.36-4.26-.51-1.76-.3-2.07-.47-3.51-.66a39.38,39.38,0,0,0-4.18-.21c-3.17-.07-4.75-.11-4.93-.07-1.23.29-2.4.31-3.24-.83a3,3,0,0,1-.08-3.63c1.57-2.49,3.22-4.91,4.9-7.33,1.2-1.72,2.51-3.37,3.78-5a4.79,4.79,0,0,1,.91-1c2.93-2.18,5.81-4.49,8.88-6.45a27.87,27.87,0,0,1,5.38-2.07c.43-.15.91-.18,1.34-.34,2-.76,2.32-2.08.81-3.53-1.25-1.2-2.69-2.21-4-3.36a6.71,6.71,0,0,1-1.65-2.11c1.41.17,2.3,1.16,3.3,1.93s2,1.64,3.07,2.32a1.84,1.84,0,0,0,1.49-.12c.17-.08.21-.9,0-1.21a2.57,2.57,0,0,1-.13-2.83,2,2,0,0,0-.34-1.73c-.77-1-1.83-1.8-2.6-2.81-.53-.72-.54-1.93-1.17-2.45s-2.23-.1-2.53-.62c-1.14-1.92-3.58-.78-4.8-2.29-.11-.13-1,.09-1.17.36a1.37,1.37,0,0,0-.11,1.23c.37.73,1,1.34,1.4,2,.13.2.15.66,0,.76s-.8.41-.92.3a7.36,7.36,0,0,1-2.08-2.33c-.42-1.2-.25-2.75-1.6-3.31a23.65,23.65,0,0,0-5.73-1.67c-2.71-.34-5.46-.27-8.19-.37a7.49,7.49,0,0,0-.82,0c-2.66.15-2.58.12-2.11-2.56.52-3,2.61-4.49,5.05-5.71.74-.37,1.61-.47,2.32-.86a8.22,8.22,0,0,1,6.52-1c1.52.4,3.48-.17,5.05-.81,2.78-1.13,3.55-3.71,2.47-6.94-.86-2.54-1.75-5.07-2.62-7.61.48.8,1,1.57,1.42,2.39a10.84,10.84,0,0,0,2.1,3.21,8.47,8.47,0,0,0-.32-1.43c-2.41-6.25-4.73-12.54-7.33-18.71a42.22,42.22,0,0,0-4.23-7.34,46.91,46.91,0,0,1-6.35-12.17c-.31-.94-1-1.76-1.39-2.68a15,15,0,0,1-1.37-3.56c-.69-4.48-3-8.24-5.11-12.1q-3.9-7.26-8-14.42c-1.91-3.33-4-6.57-6-9.85a1.34,1.34,0,0,0-.56-.59c-3.39-1.16-5.32-4.31-8.24-6-2.5-1.47-5.24-2.82-8.48-1.34-1.46.66-3.32,1.2-4.79-.62a2.27,2.27,0,0,0-2.19-.16c-1.24,1.45-2.81,1-4.29,1.15-.67.07-1.66.2-1.89.63a3.08,3.08,0,0,1-3.42,1.67c-1.93-.15-3.19,1.22-4.37,2.43-1.45,1.48-2.7,3.14-4,4.71-.06.07-.16.12-.2.19-.5.94-2.15-1.06-2.05.63.07,1.27-.8,1.52-1.3,2.19-1.5,2-2.78,4-2.13,6.79a10.2,10.2,0,0,1-.6,5.9c-1,2.67-1.89,5.51-1.2,8.54a4.16,4.16,0,0,1-.42,2.66c-1.33,2.66-1,5.57-1.42,8.37a2.34,2.34,0,0,0,.51,1.78c1.36,1.23.57,2.56.3,3.84a1.18,1.18,0,0,1-.89.79c-.32,0-.68-.48-.92-.83-.43-.63-.78-1.32-1.16-2-.42.75-.85,1.51-1.26,2.28a1.37,1.37,0,0,0-.12.53c-.3,4.38-.42,8.78-1,13.13-.6,4.91-1.58,9.78-2.36,14.67-.39,2.44-.72,4.89-1.05,7.34,0,.13.18.29.37.57,1.08-.74,1.25-1.92,1.55-3a25.79,25.79,0,0,1,.82-2.89c.13-.32.66-.47,1-.69.18.37.58.8.5,1.11A26.6,26.6,0,0,0,360,133a20.78,20.78,0,0,1-1.22,6.43c-.11.39-1.31.47-2.16.76,1.42,1.72.53,3.78.35,5.88a43.18,43.18,0,0,0,.1,6.82,3.42,3.42,0,0,0,2.61,3.15,8.93,8.93,0,0,1,3,2.28,1.77,1.77,0,0,1-.07,2.71,12.34,12.34,0,0,1-3,2.29,7.38,7.38,0,0,0-3.59,2.8c-1.09,1.76-1.35,1.73-3.38,1.12-1.81-.54-2.2-.46-3.08,1.25a3.41,3.41,0,0,1-2.67,2.07,4,4,0,0,0-2.07,1.22c-2.58,2.73-5.11,5.52-7.59,8.34-.59.66-.81,1.19-.67,1.59s.91.69,1.75.91a9.43,9.43,0,0,0,1.87.29s.54,0,4.63.84c3.91.8,15.91,6.67,20.66,13.85,1.34,2,1,2.52,3,5.48.74,1.13,1.43,2,1.12,2.95s-1.55,1.47-2.23,1.76a6.64,6.64,0,0,1-2,.49,50.09,50.09,0,0,1-6.27,0,18.14,18.14,0,0,0-5.31.44c-1.83.51-2.83,1.2-4.94,1.22a3.53,3.53,0,0,1-2.44-.6c-.31-.27-.42-.49-1.13-2.53-.64-1.83-.86-2.74-1.23-3.66a7.4,7.4,0,0,1-.19-4.85c.5-2,1.22-6.14,1.6-8.12.07-.33.08-1,0-1-1.49-.49-3.09-1.42-4.5-1.21-3.34.48-6.58,1.56-9.87,2.31a7.27,7.27,0,0,0-4.18,2.47,4.46,4.46,0,0,1-1,.93c-3.56,2.28-4.61,5.76-4.6,9.7a3.2,3.2,0,0,0,.75,1.6,6.74,6.74,0,0,0,1.84,1.52c.26.18,1.26.87,1.84,1.2,2.89,1.68,9.11,2.66,9.07,3a9.52,9.52,0,0,1-2.48.06,16.74,16.74,0,0,1-2.44-.3c-.12,0-.7-.14-1.47-.38a19.07,19.07,0,0,1-2.35-.9,22.56,22.56,0,0,0-2.49-1c-.52-.16-1.09-.43-1.33.06a.14.14,0,0,0,0,.06,1.91,1.91,0,0,0,.29,1.38,2.75,2.75,0,0,1-1.07,3.41,28.28,28.28,0,0,1-3.43,2.27c-1.07.62-2.42.67-3.14,2-.26.47-1.46.63-2.22.59-1.92-.08-3.83-.43-5.74-.56-2.11-.15-3.45-1.77-4.35-3.11-1.78-2.7-4.13-2.78-6.7-2.36a25.62,25.62,0,0,0-5.81,1.59c-5.06,2.14-9.59,10.32-8.68,16.25a160.38,160.38,0,0,0,8.63,31.57c2.15,5.76,4,11.65,5.77,17.52.44,1.45.32,3.07.52,5.23a45.94,45.94,0,0,1-4.77-3.87,42,42,0,0,1-6.54-9.43,55.26,55.26,0,0,0-4-6.28,9.83,9.83,0,0,0-2.6-2.37,60.61,60.61,0,0,0-8.23-5.26c-3.48-1.63-7.07-3.47-9.9-6.34-1.52-1.55-3.6-2.58-5-4.21a156.78,156.78,0,0,1-10.22-13c-3-4.35-6-8.78-7.44-14-.41-1.47-.53-3-2-4.08a2.09,2.09,0,0,1-.38-1.77c.6-2.45-.54-4.45-1.44-6.55a15.88,15.88,0,0,1-1.32-3.84c-1.13-7.58-1.67-15.23-.53-22.8.8-5.17,1.38-10.35,2-15.54a37.4,37.4,0,0,1,3-10.22c2-4.78,3.75-9.68,5.62-14.51.26-.68.49-1.59,1-1.91,2.31-1.4,2.39-4,3.53-6,1.43-2.54,3-5,4.47-7.53s2.51-4.91,3.87-7.29c1.45-2.54,3.12-5,4.59-7.48.89-1.57,1.57-3.27,2.4-4.88a15.3,15.3,0,0,1,1.49-2.27c2.13-2.63,4.3-5.23,6.41-7.88a3.74,3.74,0,0,0,.79-1.74c.11-.86.16-1.61,1.23-1.84.26-.06.54-.51.62-.84,1-3.92,3.95-6.56,6.16-9.68,2.51-3.49,5.14-6.91,7.74-10.34q4.15-5.48,8.38-10.91c1.67-2.17,3.35-4.34,5.12-6.42a28.15,28.15,0,0,1,3.49-3.5c.44-.36,1.28-.22,1.95-.29v.07c-1.78,2.59-3.58,5.18-5.56,8a8.78,8.78,0,0,0,5.35-3.81l1.88.39c-.26.23-.08.94-.11,1.43.57-.1,1.46,0,1.63-.33a19.5,19.5,0,0,0,1.1-3.06ZM533,155a1.77,1.77,0,0,0,0-.23l-.38,0c0,.08,0,.21,0,.22S532.83,155,533,155ZM498.08,68.87c.06,0,.32-.27.63-.54l-1.07-.74c-.09.2-.32.49-.26.6A2.17,2.17,0,0,0,498.08,68.87Zm-1.4,44c.12.07.45-.17.95-.38-.81-.59-1.18-.87-1.59-1.11a2.53,2.53,0,0,0-.39.52A4.5,4.5,0,0,0,496.68,112.9Zm-2.38-5.82c0-.06,0-.15,0-.24l-.35.12.15.2C494.15,107.14,494.27,107.14,494.3,107.08Zm-9.06,63.2c-.21-.45-.41-.9-.61-1.36l-.28.12c.18.44.38.87.57,1.31Zm-7.33,18.48a1,1,0,0,0-.27-.67,1.08,1.08,0,0,0-.42-.23,1,1,0,0,0-.49-.34,1,1,0,0,0-.74.09,1.06,1.06,0,0,0-.44.58,5.55,5.55,0,0,0,.17,2.59,1,1,0,0,0,1.74.23A4,4,0,0,0,477.91,188.76Zm-9.5,11.42c2.19-.29,2.58-1,2.3-3.17a62.75,62.75,0,0,1-.57-6.26c-.06-1.46.25-2.92.25-4.37,0-2.12-.41-2.57-2.41-3-.9-.18-1.81-.29-2.7-.47-3.34-.67-5.09-.36-6.87.31a9.15,9.15,0,0,0-2.35,1.29c-.39.29-.76.6-1.14.9l-1.6,1a27.32,27.32,0,0,0-3.13,3,32.55,32.55,0,0,0-3.3,4,3.27,3.27,0,0,1-1,1.19c-.59.37-1.78.33-2.4,1.06-.78.93-.87,1.46-.7,1.91a1.52,1.52,0,0,0,2,.62,4.07,4.07,0,0,1,1.23-.51,1.16,1.16,0,0,1,.35,0,2.58,2.58,0,0,1,1.46.52,5,5,0,0,0,2,.75c1.89.29,3.79.45,5.69.68l8.17,1S466.87,200.38,468.41,200.18ZM410.53,12.4l-.41-.29a2.76,2.76,0,0,0-.18.39s.17.15.21.13A2.14,2.14,0,0,0,410.53,12.4ZM359.1,72l-.54-.28c-1,1.26-2.05,2.45-2.94,3.76-.49.72-1,1.68.06,2.42.8.55,1.81,0,2.24-1.25C358.42,75.14,358.72,73.56,359.1,72Zm-5.66,123a1.84,1.84,0,0,0,.36-1.7,1.81,1.81,0,0,0-.78-.93.93.93,0,0,0-.92-.77,1,1,0,0,0-1,.95c0,1-.33,4.16,0,5.09a1,1,0,0,0,.44.56.93.93,0,0,0,.61.11c.47,0,1.2-2.65,1.21-3.13C353.43,195.06,353.44,195,353.44,195Zm-5-132.37.42-.62-.36-.39c-.17.18-.41.34-.49.55S348.31,62.43,348.46,62.58ZM346,69.3c.51-.58.95-2,.64-2.37-.76-1-1.27.43-2,.65a3.92,3.92,0,0,0-2.52,3c-.09.29.19.7.42,1.46A26,26,0,0,0,346,69.3Zm.32,15.24c0-.06-.25-.18-.44-.29a3,3,0,0,0-.29.71c0,.08.3.2.46.3A4.22,4.22,0,0,0,346.27,84.54Zm-1.62-6.07c.06-.16-.18-.56-.36-.62a.76.76,0,0,0-.69.22A8.79,8.79,0,0,0,342,80.88a7.48,7.48,0,0,1-3.68,5.4c1.7.61,3,1.26,3.67-.14A77.36,77.36,0,0,0,344.65,78.47Zm-4,17.06s-.12-.12-.17-.18-.46,0-.51.1a20.76,20.76,0,0,0-2.84,7.87c0,.45.29.93.45,1.4.34-.35.89-.65,1-1.06C339.29,101,339.94,98.24,340.61,95.53Zm-1.13,41.71c0-.22-.41-.51-.63-.76-.21.24-.58.47-.61.74-.15,1.7-.23,3.4-.34,5.1l.73.16C338.93,140.74,339.25,139,339.48,137.24Zm-.75-46.18c.11.1.53-.23,1.09-.49-.51-.43-.78-.78-1.12-.89s-.59.2-.88.32A5.47,5.47,0,0,0,338.73,91.06Zm-4.5,13.79c.07-.18-.44-.85-.71-.86-.84,0-1.33.46-1.16,1.92,0,0,.38.48.71.93A15.38,15.38,0,0,0,334.23,104.85Zm-8.52-11.69c.08-.13.22-.27.21-.39s-.23-.15-.35-.23c-.08.12-.15.26-.23.38Zm-.57,14.89c0-.32-.39-.69-.61-1.06-.3.28-.8.53-.84.83a9.9,9.9,0,0,0,.15,2.09l.65.11A9.88,9.88,0,0,0,325.14,108.05Zm-.78-21.41.34-.38-.55-.34c-.07.15-.21.33-.18.46S324.22,86.55,324.36,86.64ZM311.84,99.07c0-.16-.19-.4-.3-.6l-.81.93c.29.25.46.4.64.54A3.51,3.51,0,0,0,311.84,99.07Zm-2.52,7.42a.91.91,0,0,0-.42-.82.93.93,0,0,0-.86.37c-.39,1-.67,2.15-1,3.23l.83.31C308.38,108.56,308.91,107.55,309.32,106.49Zm-8-33.21c.36-.62.71-1.24,1.08-1.86l-.57-.35-1.13,1.8Zm-4.11,38.79c.09-.19-.17-.58-.37-1.16-.4.48-.73.7-.77,1s.17.61.28.91C296.61,112.55,297,112.37,297.17,112.07Z"/><path d="M316.57,44.23c-.05.15-.1.3-.16.44-.41-.25-.81-.51-1.22-.75Z"/><path d="M315.19,43.92l-.19,0v-.06h0Z"/><path d="M315,43.82v.06l-.06,0Z"/><path d="M314.94,43.86l.06,0c0,1,.26,2.26-.22,3s-2.07.53-2.62,1.2a17.53,17.53,0,0,0-1.9,3.74l-.15.16a22.91,22.91,0,0,0-2.62,2l-1.88-.39c.43-.55.84-1.12,1.26-1.67,1-1.27.51-2.16-1.05-2.55v-.07h0c1-2.43,1.61-2.77,4.14-2.78a3,3,0,0,0,1.76-.93c.58-.56.9-1.38,1.45-2S314.47,43,314.94,43.86Z"/><path d="M297.45,286.69c.14.18.07.52.14,1.17l-.87,1.11a14.6,14.6,0,0,1-.93-1.15,1.07,1.07,0,0,1-.24-.75,11.78,11.78,0,0,1,.7-1.54A16.43,16.43,0,0,1,297.45,286.69Z"/><path d="M267.3,95.29c.13.55.28.81.21,1a4.28,4.28,0,0,1-.63.73c-.09-.2-.27-.44-.22-.6A5.24,5.24,0,0,1,267.3,95.29Z"/><path class="cls-1" d="M285.66,424.77c4-2.46,9.45-2.1,14.38-2.58a55.08,55.08,0,0,0,7.24-1.16c12-2.74,19.48-9.2,24.4-18.77,6.67-13,12.72-31.77,10.42-42.17"/><path class="cls-2" d="M523.31,273.25c-.15.47-.31.95-.48,1.42s-.25.73-.37,1.08c-3.84,10.55-9.57,17.71-15.12,29.6"/><path class="cls-2" d="M530.28,237c.86,2.95-.42,8.49-1.8,13.66-1,3.83-2.08,7.45-2.38,9.69a73.78,73.78,0,0,1-2.78,12.88"/><path class="cls-2" d="M491.2,354.71c-1.29,8.06.16,16.31,2.3,24.18,2.41,8.83,5.8,17.57,11.54,24.7s14.08,12.53,23.21,13.12"/><path class="cls-3" d="M413.11,391.54a7.45,7.45,0,0,1,3.4-.86c.76,0,1.53,0,2.29-.05,15.38-.26,32.66-19.39,24.74-10.95"/><path class="cls-4" d="M320.32,207.71c.66.21,1.25.39,1.77.57a49.19,49.19,0,0,1,5.69,2,29.88,29.88,0,0,0,4.75,1.18,10.86,10.86,0,0,0,4.81-.26"/><path class="cls-5" d="M400.51,334.6c2.47,1,4.56,2.64,7,3a7.18,7.18,0,0,0,1.61,0,18.71,18.71,0,0,0,4.7-.79c5-1.87,7.21-3.09,10.46-4.55"/></g><g id="eye"><ellipse class="cls-6" cx="353.1" cy="195.39" rx="1.96" ry="2.89"/><ellipse class="cls-6" cx="479.75" cy="191.48" rx="1.96" ry="2.89"/></g></svg>